<svg width="335" height="330" viewBox="0 0 335 330" fill="none" xmlns="http://www.w3.org/2000/svg">
<path d="M258.204 208.922H101.646C95.9183 208.922 91.1152 204.596 90.517 198.9L75.2845 53.8355C73.8103 39.7951 83.0132 26.8513 96.7589 23.6324L103.804 21.9825C128.51 16.1969 153.791 13.1551 179.165 13.1263C179.487 13.1259 179.809 13.1259 180.131 13.1261C205.327 13.1475 230.434 16.1208 254.979 21.8099L263.023 23.6743C276.799 26.8675 286.036 39.8273 284.559 53.8918L269.333 198.9C268.735 204.597 263.932 208.922 258.204 208.922Z" fill="#7876CD"/>
<path d="M246.571 208.922H90.0129C84.2851 208.922 79.482 204.596 78.8838 198.9L63.6513 53.8355C62.1769 39.7951 71.38 26.8513 85.1257 23.6324L92.1709 21.9825C116.876 16.1969 142.157 13.1551 167.531 13.1263C167.853 13.1259 168.175 13.1259 168.497 13.1261C193.693 13.1475 218.8 16.1208 243.346 21.8099L251.39 23.6743C265.166 26.8675 274.403 39.8273 272.926 53.8918L257.699 198.9C257.101 204.597 252.298 208.922 246.571 208.922Z" fill="white"/>
<path d="M246.571 209.33H90.0129C84.0585 209.33 79.0993 204.865 78.4774 198.943L63.2449 53.8783C61.7523 39.6664 71.1192 26.4926 85.0328 23.2346L92.0776 21.5849C117.08 15.7295 142.466 12.7461 167.531 12.7179L168.497 12.7175C193.424 12.7386 218.638 15.6641 243.438 21.4117L251.482 23.2761C265.435 26.5106 274.829 39.6905 273.332 53.9346L258.106 198.943C257.484 204.865 252.525 209.33 246.571 209.33ZM168.497 13.5349L167.532 13.5353C142.529 13.5637 117.205 16.5398 92.2638 22.3808L85.2189 24.0305C71.7059 27.1949 62.6086 39.9899 64.0576 53.793L79.2901 198.857C79.8684 204.362 84.478 208.513 90.0129 208.513H246.571C252.105 208.513 256.715 204.362 257.293 198.857L272.52 53.8493C273.973 40.0151 264.849 27.214 251.298 24.0728L243.254 22.2084C218.514 16.4743 193.362 13.556 168.497 13.5349Z" fill="#7876CD"/>
<path d="M223.065 73.7616H113.513C108.493 73.7616 104.423 68.6122 104.423 62.2602V49.8209C104.423 41.8505 109.033 35.0803 115.263 33.9019L115.384 33.8837C150.577 28.6039 186.14 28.6043 221.333 33.8846C227.555 35.0733 232.155 41.8386 232.155 49.8V62.2602C232.154 68.6124 228.085 73.7616 223.065 73.7616Z" fill="white"/>
<path d="M223.065 74.1706H113.512C108.275 74.1706 104.014 68.8278 104.014 62.2604V49.8213C104.014 41.589 108.713 34.7249 115.187 33.5007L115.323 33.4794C150.515 28.2 186.202 28.2 221.394 33.4807C227.872 34.7186 232.563 41.5805 232.563 49.8V62.2604C232.563 68.8278 228.302 74.1706 223.065 74.1706ZM168.36 30.3372C150.68 30.3372 133.003 31.6541 115.445 34.2882L115.324 34.3065C109.349 35.4369 104.832 42.1077 104.832 49.8213V62.2604C104.832 68.3768 108.726 73.3532 113.512 73.3532H223.065C227.851 73.3532 231.746 68.3768 231.746 62.2604V49.8C231.746 42.0986 227.236 35.429 221.257 34.2866C203.711 31.6541 186.035 30.3372 168.36 30.3372Z" fill="#7876CD"/>
<path d="M165.884 69.2377L167.605 53.7231C167.696 52.9072 168.882 52.9072 168.972 53.7231L170.693 69.2377H165.884Z" fill="#7876CD"/>
<path d="M174.375 69.0005H162.202V73.9002H174.375V69.0005Z" fill="#7876CD"/>
<path d="M168.278 47.8012C168.052 47.8012 167.869 47.6183 167.869 47.3924V37.0168C167.869 36.7909 168.052 36.608 168.278 36.608C168.504 36.608 168.687 36.7909 168.687 37.0168V47.3924C168.686 47.6183 168.504 47.8012 168.278 47.8012Z" fill="#7876CD"/>
<path d="M180.551 48.4301C180.543 48.4301 180.534 48.4297 180.526 48.4294C180.301 48.4159 180.129 48.2222 180.143 47.9966L180.772 37.6207C180.785 37.3955 180.987 37.226 181.204 37.2375C181.429 37.251 181.601 37.4447 181.587 37.6702L180.959 48.0461C180.946 48.2628 180.766 48.4301 180.551 48.4301Z" fill="#7876CD"/>
<path d="M192.184 49.3735C192.164 49.3735 192.144 49.3718 192.123 49.3686C191.9 49.3351 191.746 49.1267 191.78 48.9037L193.352 38.5278C193.386 38.3038 193.595 38.1514 193.817 38.1848C194.041 38.2183 194.194 38.4268 194.16 38.6498L192.588 49.0257C192.558 49.2286 192.383 49.3735 192.184 49.3735Z" fill="#7876CD"/>
<path d="M203.503 51.2598C203.471 51.2598 203.439 51.2563 203.406 51.2483C203.187 51.1952 203.052 50.9742 203.105 50.755L205.621 40.379C205.674 40.1594 205.896 40.0246 206.114 40.0781C206.334 40.1312 206.468 40.3522 206.415 40.5714L203.9 50.9474C203.855 51.1346 203.687 51.2598 203.503 51.2598Z" fill="#7876CD"/>
<path d="M215.136 54.4041C215.1 54.4041 215.065 54.3998 215.029 54.3897C214.811 54.3303 214.682 54.1055 214.742 53.888L217.572 43.5121C217.631 43.2938 217.858 43.1645 218.073 43.2252C218.291 43.2846 218.42 43.5094 218.36 43.7269L215.53 54.1028C215.481 54.2848 215.316 54.4041 215.136 54.4041Z" fill="#7876CD"/>
<path d="M156.026 48.4301C155.812 48.4301 155.632 48.2628 155.619 48.0461L154.99 37.6702C154.976 37.4447 155.148 37.2512 155.373 37.2375C155.596 37.2263 155.792 37.3955 155.806 37.6207L156.435 47.9966C156.448 48.2222 156.277 48.4158 156.051 48.4293C156.043 48.4297 156.035 48.4301 156.026 48.4301Z" fill="#7876CD"/>
<path d="M144.393 49.3735C144.194 49.3735 144.02 49.2286 143.989 49.0257L142.418 38.6498C142.384 38.4266 142.537 38.2183 142.76 38.1848C142.982 38.1514 143.192 38.3038 143.225 38.5278L144.797 48.9037C144.831 49.1269 144.678 49.3351 144.454 49.3686C144.434 49.3718 144.413 49.3735 144.393 49.3735Z" fill="#7876CD"/>
<path d="M133.074 51.2599C132.89 51.2599 132.723 51.1346 132.678 50.9474L130.162 40.5715C130.109 40.3524 130.243 40.1312 130.463 40.0781C130.682 40.0234 130.904 40.16 130.956 40.379L133.472 50.755C133.525 50.974 133.391 51.1952 133.171 51.2483C133.139 51.2563 133.106 51.2599 133.074 51.2599Z" fill="#7876CD"/>
<path d="M121.441 54.4041C121.261 54.4041 121.097 54.2848 121.047 54.1028L118.217 43.7269C118.158 43.5092 118.287 43.2846 118.505 43.2252C118.721 43.1649 118.947 43.2938 119.006 43.5121L121.836 53.888C121.895 54.1057 121.767 54.3303 121.549 54.3897C121.513 54.3996 121.477 54.4041 121.441 54.4041Z" fill="#7876CD"/>
<path d="M154.726 197.188H99.719C94.4767 197.188 90.1108 193.257 89.5639 188.044L79.8817 95.837C79.5887 93.0468 80.4972 90.2516 82.3746 88.1671C84.2514 86.0827 86.9367 84.8871 89.7416 84.8871H151.386C157.388 84.8871 162.272 89.7709 162.272 95.7739V189.643C162.272 193.803 158.887 197.188 154.726 197.188ZM89.7414 85.7045C87.1676 85.7045 84.7039 86.8014 82.9815 88.7137C81.2594 90.6266 80.4257 93.1916 80.6943 95.7514L90.3765 187.958C90.8797 192.754 94.8963 196.37 99.7188 196.37H154.726C158.436 196.37 161.454 193.352 161.454 189.643V95.7739C161.454 90.2216 156.937 85.7045 151.385 85.7045H89.7414Z" fill="#7876CD"/>
<path d="M236.859 197.188H181.846C177.685 197.188 174.3 193.803 174.3 189.643V95.7739C174.3 89.7709 179.184 84.8871 185.187 84.8871H246.836C249.641 84.8871 252.326 86.0827 254.204 88.1671C256.08 90.2518 256.989 93.0472 256.696 95.837L247.014 188.044C246.467 193.257 242.101 197.188 236.859 197.188ZM185.187 85.7045C179.635 85.7045 175.118 90.2214 175.118 95.7739V189.643C175.118 193.353 178.136 196.371 181.846 196.371H236.859C241.681 196.371 245.698 192.754 246.201 187.958L255.883 95.7515C256.151 93.1918 255.318 90.6267 253.596 88.7142C251.874 86.8014 249.41 85.7045 246.836 85.7045H185.187Z" fill="#7876CD"/>
<path d="M290.227 149.028C294.353 150.819 296.823 154.836 296.848 159.063C298.227 159.217 299.607 159.576 300.946 160.157C308.173 163.295 311.488 171.697 308.35 178.923C308.297 179.045 308.239 179.164 308.182 179.284C308.8 179.3 309.425 179.432 310.027 179.693C312.545 180.786 313.7 183.714 312.607 186.233C312.582 186.291 312.555 186.347 312.528 186.404C313.259 186.522 313.987 186.731 314.698 187.04C319.286 189.032 321.39 194.365 319.398 198.953C319.226 199.349 319.028 199.724 318.809 200.082C318.867 200.106 318.925 200.128 318.983 200.153C323.571 202.144 325.675 207.478 323.683 212.066C322.763 214.185 321.128 215.773 319.184 216.674C321.698 218.714 322.659 222.249 321.306 225.364C320.302 227.678 318.256 229.217 315.956 229.675C315.833 230.715 315.56 231.754 315.122 232.763C313.608 236.248 310.508 238.554 307.035 239.201C306.886 239.835 306.682 240.465 306.414 241.084C305.127 244.048 302.691 246.159 299.855 247.122C299.885 247.849 299.737 248.638 299.428 249.351C298.334 251.869 295.387 253.069 292.869 251.975C292.868 251.975 292.867 251.975 292.866 251.974C288.869 255.547 282.933 256.738 277.634 254.437C274.062 252.886 271.458 250.026 270.104 246.681C264.204 244.088 260.939 237.967 261.689 231.873C254.315 226.228 242.193 215.961 235.935 205.276C229.652 202.275 226.826 194.812 229.621 188.374C229.734 188.114 229.858 187.86 229.985 187.611C226.075 184.007 224.426 178.412 225.955 173.156C220.746 169.294 218.681 162.227 221.375 156.023C223.478 151.179 227.947 148.096 232.842 147.533C234.098 145.402 236.773 144.492 239.1 145.502C239.655 145.743 240.144 146.074 240.557 146.469C243.02 143.211 247.472 141.93 251.384 143.628C251.477 143.668 251.567 143.712 251.658 143.755C253.038 142.132 255.367 141.525 257.424 142.417C258.668 142.958 259.578 143.946 260.05 145.11C262.389 143.891 265.238 143.698 267.846 144.831C269.943 145.741 271.518 147.35 272.424 149.266C274.153 149.133 275.939 149.406 277.64 150.144C278.027 150.312 278.397 150.502 278.754 150.707C281.849 148.104 286.266 147.308 290.227 149.028Z" fill="#02653B"/>
<path d="M279.37 239.47C279.37 239.47 257.856 228.878 250.651 235.94C243.445 243.002 212.488 279.091 212.488 279.091L178.47 258.435C178.47 258.435 225.279 231.912 230.557 215.415C235.836 198.919 234.053 172.953 234.053 172.953L239.084 175.137C239.084 175.137 236.97 199.753 241.238 199.61C245.505 199.467 251.394 187.371 253.556 178.968C260.257 178.693 268.942 182.675 268.942 182.675C268.942 182.675 245.564 203.733 251.924 205.22C258.284 206.708 275.679 194.515 275.679 194.515L277.542 201.472C277.542 201.472 247.327 213.414 252.889 219.65C258.45 225.886 275.96 210.984 277.753 210.277C279.711 212.613 267.501 220.687 273.255 220.637C279.009 220.588 284.972 219.567 284.972 219.567L286.554 231.082C286.554 231.082 267.511 224.088 266.65 227.536C265.79 230.984 282.083 235.51 282.083 235.51L279.37 239.47Z" fill="white"/>
<path d="M212.488 279.499C212.415 279.499 212.342 279.48 212.276 279.44L178.258 258.784C178.133 258.709 178.059 258.574 178.061 258.429C178.063 258.284 178.142 258.151 178.268 258.079C178.735 257.815 224.998 231.446 230.168 215.291C235.361 199.059 233.663 173.24 233.645 172.98C233.636 172.838 233.701 172.701 233.817 172.619C233.934 172.536 234.085 172.52 234.216 172.578L239.247 174.762C239.408 174.832 239.506 174.997 239.491 175.172C238.998 180.922 238.24 196.397 240.633 198.917C240.884 199.182 241.092 199.203 241.224 199.201C244.969 199.075 250.816 187.974 253.16 178.867C253.205 178.692 253.359 178.567 253.539 178.56C260.266 178.283 268.754 182.139 269.112 182.303C269.237 182.36 269.325 182.477 269.346 182.613C269.367 182.749 269.318 182.886 269.215 182.978C261.577 189.859 250.493 201.193 251.27 204.213C251.321 204.411 251.454 204.69 252.017 204.822C258.14 206.254 275.273 194.301 275.445 194.18C275.555 194.103 275.694 194.085 275.819 194.131C275.944 194.176 276.04 194.28 276.074 194.409L277.937 201.366C277.99 201.566 277.885 201.775 277.692 201.852C277.457 201.945 254.151 211.222 252.681 217.417C252.506 218.153 252.674 218.795 253.193 219.378C257.446 224.147 269.715 215.398 274.953 211.661C276.48 210.573 277.23 210.043 277.603 209.896C277.767 209.832 277.953 209.879 278.066 210.014C279.194 211.359 277.113 213.637 274.91 216.048C273.626 217.453 271.868 219.378 272.127 219.959C272.187 220.093 272.532 220.225 273.251 220.228C278.906 220.18 284.843 219.175 284.902 219.165C285.013 219.145 285.124 219.172 285.213 219.238C285.302 219.303 285.361 219.402 285.376 219.512L286.958 231.026C286.977 231.168 286.921 231.31 286.809 231.4C286.698 231.49 286.547 231.515 286.412 231.465C281.981 229.838 269.923 225.909 267.384 227.258C267.132 227.391 267.071 227.537 267.047 227.635C266.52 229.747 275.586 233.281 282.192 235.116C282.319 235.151 282.422 235.246 282.467 235.37C282.512 235.494 282.495 235.632 282.42 235.741L279.707 239.701C279.592 239.869 279.372 239.927 279.189 239.837C278.976 239.733 257.854 229.453 250.936 236.232C243.825 243.201 213.107 278.996 212.797 279.357C212.718 279.45 212.604 279.499 212.488 279.499ZM179.275 258.446L212.404 278.561C215.234 275.265 243.553 242.323 250.365 235.648C257.295 228.856 276.416 237.606 279.232 238.949L281.424 235.748C277.724 234.69 265.393 230.887 266.254 227.437C266.35 227.05 266.602 226.747 267.001 226.535C270.06 224.916 282.748 229.281 286.057 230.467L284.624 220.037C283.164 220.267 278.11 221.004 273.258 221.046C272.879 221.054 271.723 221.059 271.381 220.292C270.926 219.273 272.197 217.806 274.307 215.497C275.739 213.929 277.645 211.843 277.56 210.847C277.097 211.137 276.308 211.7 275.429 212.327C269.552 216.519 257.324 225.238 252.584 219.922C251.883 219.136 251.648 218.23 251.885 217.228C253.37 210.975 274.021 202.448 277.054 201.227L275.435 195.181C272.525 197.175 257.772 207.009 251.831 205.618C250.914 205.403 250.589 204.846 250.479 204.417C249.394 200.199 264.805 185.885 268.199 182.797C266.201 181.95 259.373 179.242 253.874 179.367C251.593 187.99 245.768 199.867 241.252 200.018C240.818 200.036 240.393 199.853 240.04 199.48C237.072 196.353 238.437 178.051 238.653 175.395L234.501 173.592C234.73 177.778 235.717 200.631 230.947 215.54C225.944 231.173 185.012 255.149 179.275 258.446Z" fill="#02653B"/>
<path d="M286.002 208.154C286.583 208.183 287.169 208.314 287.734 208.559C289.931 209.513 291.089 211.865 290.62 214.121C291.801 214.182 292.992 214.451 294.141 214.95C299.296 217.188 301.66 223.181 299.422 228.336C297.805 232.061 294.228 234.327 290.422 234.455C292.636 237.16 293.297 240.977 291.809 244.404C289.862 248.888 284.915 251.141 280.338 249.837C279.018 250.609 277.362 250.763 275.852 250.107C273.336 249.015 272.182 246.09 273.274 243.575C273.375 243.343 273.491 243.124 273.621 242.916C273.118 240.924 273.243 238.756 274.125 236.726C275.62 233.282 278.885 231.155 282.392 230.943C279.916 228.077 279.146 223.938 280.755 220.232C281.271 219.044 281.988 218.007 282.846 217.138C281.707 216.316 280.989 215.059 280.826 213.706C280.245 213.677 279.659 213.546 279.094 213.3C276.578 212.208 275.424 209.283 276.516 206.767C277.609 204.252 280.533 203.098 283.049 204.19C284.727 204.918 285.797 206.461 286.002 208.154Z" fill="#02653B"/>
<path d="M275.852 250.516C275.797 250.516 275.742 250.505 275.689 250.482C274.372 249.91 273.357 248.86 272.83 247.525C272.303 246.189 272.327 244.729 272.899 243.412C272.983 243.219 273.078 243.03 273.183 242.849C272.686 240.734 272.881 238.563 273.75 236.562C275.162 233.311 278.127 231.083 281.602 230.61C279.363 227.595 278.873 223.54 280.38 220.068C280.842 219.005 281.467 218.035 282.242 217.181C281.322 216.384 280.693 215.289 280.471 214.086C279.941 214.027 279.424 213.889 278.931 213.675C276.213 212.495 274.961 209.323 276.142 206.604C276.714 205.287 277.764 204.272 279.099 203.745C279.31 203.663 279.547 203.766 279.63 203.975C279.712 204.185 279.609 204.423 279.399 204.506C278.267 204.952 277.376 205.813 276.891 206.93C276.407 208.047 276.386 209.285 276.833 210.417C277.279 211.549 278.14 212.44 279.257 212.925C279.762 213.145 280.297 213.27 280.847 213.297C281.045 213.307 281.208 213.458 281.232 213.656C281.384 214.918 282.06 216.066 283.085 216.806C283.182 216.876 283.243 216.984 283.253 217.103C283.263 217.222 283.221 217.34 283.137 217.424C282.287 218.285 281.612 219.284 281.13 220.394C279.645 223.815 280.262 227.851 282.702 230.675C282.803 230.793 282.83 230.958 282.769 231.101C282.709 231.245 282.573 231.341 282.417 231.35C278.925 231.562 275.891 233.684 274.5 236.888C273.681 238.775 273.514 240.824 274.017 242.816C274.044 242.924 274.026 243.038 273.967 243.133C273.848 243.325 273.74 243.528 273.649 243.738C273.165 244.854 273.144 246.092 273.591 247.224C274.037 248.357 274.898 249.247 276.015 249.732C276.222 249.822 276.317 250.063 276.227 250.27C276.16 250.424 276.01 250.516 275.852 250.516Z" fill="white"/>
<path d="M245.994 171.446C247.668 172.611 248.346 174.83 247.503 176.773C246.541 178.987 243.967 180.003 241.752 179.041C241.29 178.841 240.881 178.569 240.53 178.246C238.138 179.326 235.317 179.432 232.72 178.304C227.836 176.184 225.596 170.506 227.716 165.623C229.837 160.74 235.514 158.5 240.398 160.62C244.672 162.476 246.922 167.057 245.994 171.446Z" fill="#02653B"/>
<path d="M243.424 179.994C242.781 179.994 242.131 179.864 241.512 179.595C241.102 179.417 240.722 179.185 240.379 178.902C237.858 179.963 234.994 179.95 232.479 178.858C230.017 177.789 228.119 175.825 227.134 173.328C226.149 170.832 226.195 168.101 227.264 165.639C228.476 162.847 230.855 160.776 233.79 159.959C234.008 159.898 234.232 160.025 234.293 160.243C234.354 160.461 234.227 160.686 234.009 160.746C231.312 161.497 229.127 163.399 228.013 165.964C227.032 168.226 226.989 170.734 227.894 173.028C228.799 175.322 230.543 177.126 232.805 178.108C235.188 179.142 237.915 179.122 240.284 178.052C240.434 177.985 240.609 178.012 240.73 178.123C241.057 178.425 241.43 178.668 241.838 178.845C243.428 179.534 245.261 179.123 246.4 177.818C246.549 177.649 246.807 177.631 246.977 177.78C247.147 177.928 247.164 178.186 247.016 178.356C246.085 179.422 244.771 179.994 243.424 179.994Z" fill="white"/>
<path d="M269.026 175.222C270.953 174.295 273.255 174.178 275.371 175.096C278.744 176.561 280.523 180.172 279.803 183.637C280.652 183.754 281.5 183.985 282.325 184.343C287.208 186.464 289.448 192.141 287.328 197.025C285.208 201.908 279.53 204.148 274.647 202.028C269.763 199.908 267.523 194.23 269.643 189.347C269.658 189.313 269.674 189.281 269.69 189.247C269.557 189.198 269.426 189.146 269.295 189.089C266.887 188.044 265.291 185.905 264.837 183.506C262.192 185.314 258.707 185.766 255.551 184.396C250.668 182.276 248.428 176.598 250.548 171.715C252.668 166.831 258.346 164.591 263.229 166.711C266.753 168.241 268.899 171.623 269.026 175.222Z" fill="#02653B"/>
<path d="M278.819 203.38C277.472 203.38 276.118 203.112 274.841 202.558C269.855 200.393 267.508 194.643 269.506 189.626C269.501 189.624 269.495 189.621 269.489 189.619C267.229 188.637 265.557 186.682 264.925 184.319C262.139 185.996 258.751 186.231 255.746 184.926C253.284 183.857 251.386 181.893 250.401 179.397C249.415 176.9 249.462 174.169 250.531 171.707C251.071 170.463 251.838 169.362 252.813 168.434C252.976 168.278 253.235 168.283 253.391 168.448C253.547 168.611 253.541 168.87 253.377 169.025C252.482 169.878 251.776 170.889 251.28 172.032C250.298 174.294 250.256 176.803 251.161 179.096C252.066 181.39 253.81 183.194 256.072 184.176C259 185.447 262.323 185.128 264.964 183.324C265.078 183.245 265.223 183.23 265.35 183.283C265.478 183.336 265.57 183.449 265.596 183.584C266.043 185.94 267.62 187.916 269.816 188.869C269.94 188.923 270.064 188.972 270.19 189.019C270.295 189.058 270.38 189.139 270.424 189.243C270.468 189.347 270.467 189.464 270.421 189.567L270.375 189.666C268.349 194.333 270.498 199.781 275.167 201.808C278.653 203.32 282.782 202.515 285.441 199.801C285.599 199.64 285.858 199.637 286.019 199.795C286.18 199.953 286.183 200.212 286.025 200.373C284.103 202.334 281.477 203.38 278.819 203.38Z" fill="white"/>
<path d="M241.142 164.899C239.263 164.083 237.079 164.945 236.263 166.823C235.448 168.702 236.309 170.886 238.188 171.702C240.067 172.518 242.251 171.656 243.067 169.777C243.883 167.898 243.021 165.714 241.142 164.899Z" fill="white"/>
<path d="M250.062 159.696C248.886 159.185 247.519 159.724 247.009 160.9C246.498 162.076 247.038 163.443 248.213 163.953C249.389 164.464 250.756 163.924 251.266 162.749C251.777 161.573 251.237 160.206 250.062 159.696Z" fill="white"/>
<path d="M290.073 241.314C288.346 240.565 286.339 241.356 285.589 243.083C284.84 244.809 285.632 246.817 287.358 247.566C289.085 248.316 291.092 247.524 291.841 245.797C292.591 244.071 291.799 242.064 290.073 241.314Z" fill="white"/>
<path d="M280.05 238.237C278.965 237.765 277.704 238.263 277.232 239.349C276.761 240.434 277.259 241.695 278.344 242.167C279.429 242.638 280.691 242.14 281.162 241.055C281.633 239.97 281.136 238.708 280.05 238.237Z" fill="white"/>
<path d="M213.37 277.544C216.047 271.378 209.892 262.764 199.623 258.305C189.353 253.846 178.857 255.23 176.18 261.396C173.502 267.562 179.657 276.175 189.927 280.635C200.197 285.094 210.692 283.71 213.37 277.544Z" fill="white"/>
<path d="M201.669 283.632C197.98 283.632 193.84 282.778 189.744 280.999C179.285 276.458 173.023 267.587 175.785 261.224C178.548 254.861 189.305 253.379 199.765 257.921C210.224 262.462 216.487 271.333 213.724 277.696C212.043 281.567 207.402 283.632 201.669 283.632ZM187.785 256.086C182.405 256.086 178.086 257.979 176.535 261.55C173.952 267.499 180.024 275.888 190.07 280.25C200.117 284.611 210.392 283.32 212.975 277.37C215.557 271.421 209.485 263.032 199.439 258.67C195.423 256.927 191.368 256.086 187.785 256.086Z" fill="#02653B"/>
<path d="M180.495 271.179C180.368 271.179 180.243 271.121 180.163 271.01C178.226 268.334 177.67 265.685 178.596 263.552C179.585 261.274 182.115 259.849 185.72 259.54C189.234 259.237 193.38 260.031 197.392 261.774C200.248 263.013 202.839 264.657 204.885 266.525C205.052 266.677 205.064 266.936 204.912 267.102C204.759 267.27 204.5 267.281 204.334 267.129C202.354 265.32 199.84 263.728 197.066 262.524C193.177 260.835 189.174 260.065 185.79 260.355C182.498 260.637 180.21 261.888 179.346 263.877C178.539 265.735 179.064 268.098 180.825 270.531C180.957 270.714 180.916 270.969 180.733 271.102C180.661 271.154 180.578 271.179 180.495 271.179Z" fill="#02653B"/>
<path d="M207.393 278.602C207.285 278.602 207.177 278.56 207.097 278.475C206.941 278.311 206.948 278.052 207.112 277.897C207.577 277.457 207.935 276.951 208.177 276.394C208.578 275.469 208.655 274.425 208.403 273.291C208.354 273.071 208.493 272.852 208.713 272.803C208.935 272.756 209.152 272.894 209.201 273.114C209.491 274.42 209.399 275.633 208.927 276.72C208.641 277.378 208.22 277.974 207.674 278.49C207.595 278.565 207.494 278.602 207.393 278.602Z" fill="#02653B"/>
<path d="M90.8961 173.995C101.214 163.012 119.785 144.94 150.197 163.184C180.61 181.428 164.06 224.751 130.337 248.178C96.6149 271.605 56.2675 281.493 56.6916 259.832C57.0727 240.369 62.8755 203.823 90.8961 173.995Z" fill="white"/>
<path d="M71.6937 272.249C67.7125 272.249 64.3985 271.584 61.8987 270.246C58.0771 268.199 56.1878 264.693 56.2832 259.824C56.5809 244.6 60.5211 205.733 90.5986 173.715C96.7452 167.172 103.698 160.648 112.87 157.246C124.441 152.955 137.072 154.834 150.408 162.834C160.592 168.943 166.179 178.279 166.565 189.832C167.223 209.518 152.758 233.1 130.571 248.514C117.774 257.404 103.745 264.552 91.0687 268.643C83.639 271.04 77.0604 272.249 71.6937 272.249ZM90.8961 173.995L91.1938 174.275C61.3113 206.085 57.3963 244.71 57.1004 259.84C57.0115 264.377 58.7557 267.635 62.2844 269.525C64.6793 270.807 67.8536 271.418 71.6125 271.418C86.0458 271.419 109.129 262.414 130.104 247.842C152.073 232.581 166.397 209.279 165.748 189.859C165.372 178.597 159.922 169.494 149.987 163.534C118.836 144.848 100.166 164.724 91.194 174.275L90.8961 173.995Z" fill="#B26932"/>
<path d="M103.815 246.577C103.391 246.523 102.985 246.316 102.687 245.963C92.386 233.727 67.4101 229.913 67.1588 229.875C66.1935 229.733 65.526 228.834 65.6686 227.869C65.8092 226.915 66.6874 226.252 67.6398 226.374C67.6513 226.375 67.6626 226.376 67.6741 226.378C68.7531 226.537 94.2232 230.421 105.392 243.686C106.02 244.433 105.925 245.548 105.178 246.176C104.784 246.507 104.288 246.638 103.815 246.577Z" fill="#B26932"/>
<path d="M124.256 225.131C123.873 225.082 123.505 224.909 123.215 224.612C103.851 204.754 80.6037 203.925 80.3717 203.919C79.3934 203.894 78.6253 203.082 78.6507 202.106C78.6761 201.13 79.4877 200.359 80.4633 200.385C80.7189 200.392 86.8101 200.579 95.4557 203.356C103.406 205.909 115.115 211.241 125.746 222.144C126.427 222.842 126.413 223.962 125.714 224.643C125.313 225.035 124.772 225.197 124.256 225.131Z" fill="#B26932"/>
<path d="M145.856 199.834C145.491 199.788 145.138 199.627 144.853 199.353C134.843 189.691 122.717 184.686 114.306 182.189C105.135 179.466 98.2572 179.045 98.1888 179.041C97.219 178.987 96.4696 178.15 96.5251 177.176C96.5805 176.202 97.4145 175.457 98.3886 175.512C98.6815 175.528 105.669 175.948 115.213 178.77C124.03 181.378 136.756 186.624 147.308 196.809C148.011 197.487 148.031 198.606 147.353 199.308C146.95 199.726 146.39 199.902 145.856 199.834Z" fill="#B26932"/>
<path d="M216.674 188.934C217.757 190.402 222.068 196.039 223.2 197.47C240.564 219.407 237.761 280.744 131.375 281.579C131.375 281.579 148.166 242.796 162.66 241.753C176.411 240.763 184.183 243.044 189.207 223.615C189.744 221.541 189.285 219.334 187.984 217.632C186.683 215.93 184.674 214.909 182.531 214.883C162.465 214.638 162.628 222.737 158.068 235.747C153.262 249.461 111.433 255.497 111.433 255.497C140.129 153.051 200.056 166.426 216.674 188.934Z" fill="white"/>
<path d="M131.375 281.988C131.238 281.988 131.11 281.919 131.034 281.804C130.958 281.689 130.945 281.543 131 281.416C131.69 279.824 148.057 242.394 162.631 241.345C164.296 241.225 165.856 241.154 167.365 241.085C178.031 240.598 184.469 240.304 188.812 223.512C189.318 221.553 188.898 219.501 187.659 217.88C186.42 216.26 184.55 215.316 182.526 215.292C165.174 215.065 163.212 221.217 159.946 231.382C159.484 232.82 159.006 234.307 158.454 235.882C153.621 249.672 113.209 255.653 111.492 255.901C111.353 255.923 111.217 255.87 111.126 255.766C111.035 255.662 111.003 255.519 111.04 255.386C118.343 229.313 128.178 208.943 140.27 194.843C150.482 182.936 162.006 175.735 174.523 173.439C193.414 169.973 209.785 178.916 217.003 188.691C218.08 190.151 222.406 195.808 223.521 197.216C231.062 206.743 235.4 224.887 227.103 242.209C221.605 253.686 211.635 262.919 197.467 269.652C180.691 277.625 158.455 281.776 131.379 281.988C131.377 281.988 131.377 281.988 131.375 281.988ZM181.65 214.469C181.942 214.469 182.236 214.471 182.536 214.474C184.813 214.502 186.917 215.563 188.309 217.384C189.701 219.205 190.173 221.514 189.603 223.717C185.11 241.093 178.445 241.397 167.402 241.902C165.899 241.97 164.344 242.041 162.689 242.16C149.561 243.105 134.169 276.348 132.006 281.165C158.675 280.894 180.579 276.773 197.116 268.913C211.11 262.263 220.951 253.159 226.365 241.855C234.511 224.85 230.268 207.058 222.88 197.723C221.762 196.311 217.425 190.64 216.345 189.177C209.274 179.599 193.217 170.841 174.671 174.243C162.342 176.505 150.977 183.615 140.891 195.375C128.971 209.274 119.252 229.331 111.999 254.996C117.213 254.172 153.329 248.032 157.683 235.612C158.231 234.047 158.707 232.565 159.167 231.132C162.492 220.784 164.522 214.469 181.65 214.469Z" fill="#891A1A"/>
<path d="M109.122 257.267C109.492 257.75 110.016 258.123 110.648 258.3C112.196 258.733 113.803 257.83 114.236 256.282C121.408 230.678 131.015 210.734 142.79 197.004C152.494 185.69 163.372 178.86 175.122 176.704C192.612 173.496 207.71 181.698 214.332 190.663C215.445 192.171 219.754 197.806 220.917 199.276C227.838 208.019 231.79 224.737 224.109 240.774C218.948 251.548 209.505 260.255 196.042 266.653C179.706 274.417 157.941 278.46 131.353 278.668C129.745 278.681 128.452 279.995 128.465 281.602C128.477 283.21 129.791 284.503 131.398 284.49C158.842 284.275 181.433 280.043 198.542 271.912C206.126 268.307 212.652 263.914 217.938 258.855C222.797 254.204 226.64 248.967 229.359 243.289C233.319 235.023 234.856 225.877 233.805 216.841C232.869 208.781 229.914 201.261 225.482 195.663C224.371 194.258 220.079 188.646 219.015 187.205C214.774 181.46 208.292 176.638 200.76 173.621C192.315 170.238 183.086 169.324 174.071 170.978C167.879 172.114 161.818 174.449 156.056 177.919C149.788 181.694 143.838 186.84 138.371 193.214C126.039 207.593 116.032 228.284 108.63 254.712C108.373 255.628 108.585 256.565 109.122 257.267Z" fill="#891A1A"/>
<path d="M191.25 207.046C188.431 209.202 187.893 213.235 190.048 216.054C192.204 218.873 196.237 219.411 199.056 217.256C201.876 215.1 202.414 211.067 200.258 208.248C198.102 205.428 194.069 204.89 191.25 207.046Z" fill="#891A1A"/>
<path d="M194.704 258.579C193.141 258.579 191.578 258.46 190.029 258.217C185.828 257.557 181.794 256.031 177.894 254.554C175.453 253.63 172.929 252.674 170.396 251.944C165.775 250.613 157.125 249.118 151.118 254.077C150.944 254.22 150.687 254.196 150.542 254.022C150.399 253.847 150.423 253.59 150.597 253.446C156.893 248.249 165.846 249.782 170.623 251.159C173.188 251.898 175.727 252.859 178.183 253.789C182.045 255.251 186.038 256.763 190.156 257.409C198.711 258.752 207.764 256.211 214.371 250.61C214.543 250.464 214.801 250.486 214.947 250.658C215.093 250.83 215.071 251.088 214.899 251.234C209.31 255.972 202.014 258.579 194.704 258.579Z" fill="#891A1A"/>
<path d="M173.491 271.37C171.23 271.37 169.039 270.576 167.376 269.754C166.146 269.145 164.959 268.424 163.811 267.727C162.328 266.826 160.794 265.895 159.183 265.22C153.364 262.782 147.67 264.28 142.261 269.672C142.1 269.831 141.842 269.831 141.683 269.672C141.523 269.512 141.524 269.253 141.683 269.094C147.272 263.524 153.432 261.924 159.5 264.467C161.167 265.165 162.726 266.112 164.235 267.028C165.368 267.716 166.54 268.428 167.739 269.021C170.052 270.165 173.439 271.259 176.447 269.974C176.652 269.885 176.895 269.981 176.984 270.189C177.072 270.397 176.976 270.637 176.768 270.726C175.695 271.184 174.584 271.37 173.491 271.37Z" fill="white"/>
<path d="M219.651 233.129C219.641 233.129 219.63 233.128 219.62 233.128C219.395 233.111 219.226 232.915 219.243 232.69C219.525 228.872 218.295 224.984 215.868 222.024C213.442 219.063 209.871 217.094 206.072 216.622C205.847 216.594 205.688 216.39 205.716 216.166C205.744 215.942 205.946 215.779 206.172 215.811C210.178 216.308 213.942 218.384 216.5 221.505C219.059 224.626 220.356 228.725 220.058 232.75C220.042 232.965 219.863 233.129 219.651 233.129Z" fill="#891A1A"/>
<path d="M143.987 245.183C143.859 245.183 143.732 245.123 143.653 245.01C143.522 244.826 143.566 244.571 143.751 244.441C150.11 239.944 150.936 231.205 150.862 226.396C150.822 223.76 150.561 221.074 150.31 218.477C149.907 214.325 149.491 210.032 149.956 205.805C150.928 196.963 155.885 188.675 163.215 183.635C163.401 183.508 163.656 183.555 163.783 183.741C163.911 183.927 163.864 184.181 163.678 184.309C156.541 189.216 151.715 197.285 150.769 205.895C150.313 210.038 150.725 214.288 151.123 218.398C151.376 221.012 151.639 223.715 151.679 226.383C151.756 231.353 150.888 240.395 144.222 245.108C144.151 245.159 144.068 245.183 143.987 245.183Z" fill="#891A1A"/>
<path d="M124.944 250.653C124.802 250.653 124.665 250.579 124.589 250.448C124.476 250.252 124.544 250.002 124.74 249.89C130.359 246.659 136.035 240.718 135.111 233.735C134.882 232.003 134.386 230.28 133.905 228.613C133.533 227.322 133.149 225.988 132.884 224.641C132.353 221.941 132.187 218.132 134.408 215.322C134.548 215.146 134.805 215.115 134.982 215.255C135.16 215.395 135.189 215.652 135.049 215.829C133.021 218.395 133.189 221.952 133.686 224.483C133.944 225.795 134.324 227.113 134.691 228.387C135.18 230.082 135.685 231.836 135.922 233.628C136.898 241.011 130.996 247.235 125.147 250.598C125.083 250.635 125.013 250.653 124.944 250.653Z" fill="#891A1A"/>
<path d="M194.707 201.694C194.688 201.694 194.668 201.693 194.649 201.69C194.425 201.658 194.27 201.451 194.302 201.228C194.842 197.438 193.878 193.476 191.657 190.358C189.436 187.24 186.007 185.034 182.248 184.305C182.027 184.262 181.882 184.047 181.925 183.826C181.968 183.604 182.185 183.46 182.404 183.503C186.366 184.271 189.982 186.596 192.323 189.884C194.664 193.171 195.68 197.348 195.111 201.343C195.082 201.547 194.907 201.694 194.707 201.694Z" fill="#891A1A"/>
<path d="M225.048 226.026C225.03 226.026 225.011 226.025 224.993 226.022C224.769 225.992 224.612 225.786 224.642 225.562C225.155 221.766 223.941 217.783 221.309 214.636C218.658 211.463 214.915 209.545 211.04 209.375C210.348 209.344 209.637 209.349 208.884 209.353C205.862 209.374 202.738 209.393 201.023 207.062C199.305 204.727 200.257 201.744 201.178 198.858C201.422 198.094 201.652 197.372 201.836 196.66C202.765 193.05 202.05 189.076 199.874 185.757C197.725 182.48 194.425 180.271 190.819 179.697C190.596 179.662 190.445 179.453 190.48 179.229C190.515 179.007 190.724 178.855 190.948 178.89C194.78 179.5 198.282 181.84 200.557 185.309C202.86 188.82 203.615 193.032 202.628 196.863C202.438 197.599 202.194 198.365 201.957 199.107C201.099 201.797 200.211 204.579 201.681 206.578C203.149 208.573 206.061 208.556 208.879 208.536C209.609 208.532 210.364 208.527 211.076 208.558C215.179 208.739 219.138 210.763 221.937 214.111C224.715 217.435 225.996 221.649 225.452 225.672C225.424 225.877 225.249 226.026 225.048 226.026Z" fill="#891A1A"/>
<path d="M166.786 291.057C175.305 307.181 191.696 311.617 205.242 304.46C218.789 297.302 224.362 281.262 215.843 265.138C207.323 249.014 187.938 238.911 174.392 246.068C160.845 253.226 158.267 274.933 166.786 291.057Z" fill="white"/>
<path d="M192.211 308.178C189.437 308.178 186.676 307.747 184.002 306.877C176.64 304.483 170.562 299.078 166.425 291.247C162.233 283.315 160.588 273.798 161.91 265.138C163.296 256.063 167.661 249.162 174.201 245.707C180.74 242.251 188.901 242.534 197.179 246.504C205.078 250.292 212.012 257.014 216.204 264.947C220.341 272.778 221.38 280.845 219.209 288.276C217.145 295.342 212.253 301.218 205.433 304.821C201.218 307.048 196.699 308.178 192.211 308.178ZM184.194 244.125C180.745 244.125 177.494 244.891 174.582 246.43C168.277 249.761 164.064 256.449 162.718 265.261C161.422 273.752 163.036 283.085 167.147 290.866C175.107 305.932 191.048 311.496 205.051 304.098C219.054 296.7 223.441 280.395 215.481 265.329C211.37 257.548 204.57 250.955 196.825 247.241C192.499 245.167 188.213 244.125 184.194 244.125Z" fill="#A89269"/>
<path d="M207.716 263.53C207.591 263.53 207.468 263.473 207.388 263.366C203.919 258.721 199.276 254.852 194.316 252.474C187.978 249.435 181.932 249.11 177.294 251.561C177.095 251.667 176.846 251.59 176.742 251.39C176.636 251.19 176.712 250.944 176.912 250.838C181.785 248.264 188.091 248.583 194.67 251.737C199.747 254.171 204.496 258.128 208.043 262.876C208.178 263.057 208.141 263.313 207.96 263.448C207.887 263.504 207.801 263.53 207.716 263.53Z" fill="#A89269"/>
<path d="M203.836 268.362C200.812 286.346 211.14 299.825 226.249 302.365C241.358 304.906 255.526 295.547 258.55 277.563C261.575 259.579 252.31 239.781 237.201 237.24C222.092 234.699 206.861 250.378 203.836 268.362Z" fill="white"/>
<path d="M231.106 303.184C229.481 303.184 227.835 303.047 226.181 302.769C218.575 301.49 212.085 297.447 207.906 291.387C203.511 285.013 201.965 277.028 203.433 268.295C204.921 259.447 209.393 250.887 215.703 244.81C222.316 238.442 229.975 235.609 237.269 236.837C244.563 238.064 250.874 243.244 255.04 251.425C259.015 259.232 260.442 268.784 258.953 277.631C257.485 286.365 253.411 293.405 247.173 297.991C242.531 301.403 236.956 303.184 231.106 303.184ZM233.912 237.375C227.875 237.375 221.717 240.153 216.27 245.399C210.084 251.357 205.699 259.751 204.24 268.43C202.807 276.95 204.307 284.728 208.579 290.923C212.631 296.8 218.93 300.72 226.316 301.962C233.702 303.204 240.937 301.56 246.689 297.332C252.752 292.875 256.714 286.015 258.147 277.495C259.607 268.817 258.209 259.45 254.311 251.796C250.266 243.852 244.166 238.825 237.133 237.643C236.066 237.463 234.991 237.375 233.912 237.375Z" fill="#A89269"/>
<path d="M253.319 271.434C253.317 271.434 253.316 271.434 253.315 271.434C253.089 271.432 252.908 271.247 252.91 271.021C252.975 265.223 251.636 259.331 249.14 254.429C245.95 248.165 241.344 244.236 236.171 243.366C235.948 243.328 235.798 243.118 235.836 242.895C235.873 242.672 236.081 242.524 236.307 242.559C241.742 243.473 246.558 247.557 249.869 254.058C252.423 259.075 253.793 265.102 253.728 271.03C253.726 271.254 253.543 271.434 253.319 271.434Z" fill="#A89269"/>
<path d="M175.909 280.766C175.909 280.766 167.099 310.157 129.023 310.637C87.7413 311.158 66.6049 265.458 74.9784 231.894C79.2201 214.891 87.6824 212.022 87.6824 212.022L175.909 280.766Z" fill="#1D811D"/>
<path d="M128.304 311.051C107.892 311.051 94.9153 300.103 87.5976 290.856C74.7805 274.659 69.6716 251.477 74.5816 231.795C78.8287 214.771 87.1973 211.755 87.5513 211.635C87.6826 211.591 87.8255 211.615 87.9337 211.699L176.16 280.443C176.293 280.547 176.348 280.721 176.3 280.883C176.278 280.957 173.989 288.409 167.042 295.802C160.636 302.618 148.841 310.797 129.028 311.046C128.787 311.049 128.544 311.051 128.304 311.051ZM87.6183 212.49C86.341 213.058 79.1457 216.879 75.3753 231.993C70.5239 251.438 75.5733 274.344 88.2388 290.348C95.4442 299.453 108.221 310.233 128.306 310.233C128.543 310.233 128.779 310.232 129.018 310.229C148.543 309.983 160.149 301.943 166.447 295.242C172.532 288.766 174.963 282.281 175.431 280.911L87.6183 212.49Z" fill="white"/>
<path d="M169.408 289.244C169.408 289.244 143.239 314.94 106.684 276.456C70.1301 237.973 80.1352 210.123 92.1732 210.915C104.211 211.708 124.073 230.973 150.417 243.14C176.762 255.307 184.116 275.905 169.408 289.244Z" fill="white"/>
<path d="M146.68 298.054C146.473 298.054 146.266 298.052 146.057 298.049C132.95 297.82 119.603 290.65 106.388 276.738C80.9142 249.92 77.7415 227.893 82.7646 217.179C84.8418 212.75 88.3677 210.258 92.1997 210.507C98.7942 210.942 107.473 216.68 118.461 223.944C127.838 230.144 138.467 237.171 150.588 242.769C165.773 249.782 175.418 259.917 177.05 270.577C178.131 277.633 175.585 284.191 169.688 289.542C169.397 289.822 160.682 298.054 146.68 298.054ZM91.675 211.308C88.374 211.308 85.3462 213.599 83.5053 217.526C78.5911 228.007 81.7908 249.656 106.981 276.175C120.04 289.923 133.192 297.007 146.072 297.231C146.276 297.235 146.481 297.237 146.683 297.237C160.523 297.237 169.036 289.036 169.122 288.952C169.126 288.948 169.13 288.945 169.133 288.941C174.822 283.782 177.28 277.475 176.243 270.701C174.652 260.317 165.177 250.407 150.246 243.512C138.068 237.887 127.412 230.842 118.01 224.626C107.123 217.428 98.5243 211.743 92.1464 211.323C91.9887 211.313 91.8314 211.308 91.675 211.308Z" fill="black"/>
<path d="M150.417 272.147C150.417 272.147 143.252 281.451 124.411 266.742C105.57 252.034 115.782 237.666 132.186 243.399C148.59 249.132 154.991 263.894 150.417 272.147Z" fill="#613D30"/>
<path d="M147.349 261.561C147.185 261.561 147.029 261.46 146.967 261.298C144.601 255.092 138.593 249.781 130.895 247.091C128.86 246.38 126.916 246.019 125.118 246.019C124.892 246.019 124.709 245.836 124.709 245.61C124.709 245.384 124.892 245.202 125.118 245.202C127.008 245.202 129.043 245.578 131.165 246.319C139.087 249.088 145.28 254.579 147.731 261.006C147.811 261.217 147.706 261.453 147.495 261.534C147.447 261.552 147.397 261.561 147.349 261.561Z" fill="white"/>
<path d="M223.147 288.249C223.147 288.249 213.325 280.048 215.645 279.163C217.964 278.279 219.145 279.893 219.145 279.893L223.147 288.249Z" fill="#FF8767"/>
<path d="M222.261 286.6C222.261 286.6 214.736 278.626 218.079 277.282C221.422 275.937 223.072 277.302 223.072 277.302C223.072 277.302 226.398 274.701 226.198 277.699C225.998 280.696 223.055 287.483 222.261 286.6Z" fill="#FF8767"/>
<path d="M233.766 297.522C233.766 297.522 225.547 304.377 230.767 308.305C235.987 312.233 249.691 311.518 251.135 309.141C252.58 306.765 247.034 296.806 247.034 296.806C247.034 296.806 235.172 298.462 233.766 297.522Z" fill="#FF8767"/>
<path d="M257.017 276.452L275.158 287.135C275.158 287.135 282.222 269.189 271.383 259.322C260.544 249.455 257.266 246.1 257.266 246.1L254.927 242.21L256.057 247.907L253.78 246.965L255.718 250.587C255.718 250.587 255.311 253.802 256.779 257.691C258.246 261.58 252.63 254.334 252.63 254.334C252.63 254.334 260.913 269.758 257.017 276.452Z" fill="#FF8767"/>
<path d="M258.359 274.662C258.359 274.662 250.459 281.149 253.969 286.331C257.478 291.512 264.748 302.479 268.822 299.973C272.897 297.467 279.155 289.228 275.51 286.135C271.864 283.042 258.359 274.662 258.359 274.662Z" fill="#FF8767"/>
<path d="M255.427 285.78C255.427 285.78 251.453 288.789 251.095 292.256C250.738 295.723 243.658 292.295 244.653 298.628C245.648 304.962 247.497 310.995 252.775 310.601C258.052 310.207 269.822 303.04 268.523 298.465C267.224 293.89 257.697 283.559 255.427 285.78Z" fill="#FF8767"/>
<path d="M223.707 296.461C223.707 296.461 218.448 288.583 220.529 286.341C222.609 284.1 223.369 284.317 223.868 286.395C224.367 288.473 226.125 292.846 226.125 292.846L223.707 296.461Z" fill="#FF8767"/>
<path d="M226.037 291.479C226.037 291.479 221.14 294.889 223.845 300.186C226.55 305.484 231.709 306.028 232.518 303.081C233.326 300.134 234.779 299.362 233.052 297.335C231.324 295.307 226.037 291.479 226.037 291.479Z" fill="#FF8767"/>
<path d="M265.589 259.728C265.089 260.475 264.079 260.675 263.333 260.175C262.586 259.676 262.386 258.666 262.885 257.919C263.385 257.173 264.394 256.972 265.141 257.472C265.888 257.971 266.088 258.981 265.589 259.728Z" fill="white"/>
<path d="M281.59 232.6C278.922 232.6 275.528 230.783 271.794 228.785C270.661 228.178 269.488 227.551 268.31 226.962C268.108 226.861 268.026 226.615 268.127 226.413C268.227 226.211 268.474 226.13 268.675 226.231C269.864 226.824 271.041 227.454 272.18 228.064C277.462 230.891 282.022 233.331 284.365 230.516C284.508 230.343 284.766 230.319 284.94 230.464C285.114 230.608 285.138 230.865 284.993 231.039C284.072 232.147 282.921 232.6 281.59 232.6Z" fill="#FF8767"/>
<path d="M256.057 248.316C255.893 248.316 255.737 248.216 255.675 248.053C251.806 237.907 248.803 228.073 252.988 224.843C257.742 221.534 263.584 223.688 268.675 226.23C268.877 226.331 268.959 226.577 268.858 226.779C268.757 226.981 268.511 227.062 268.31 226.962C263.434 224.526 257.859 222.45 253.471 225.502C249.714 228.402 252.862 238.382 256.439 247.761C256.519 247.973 256.414 248.208 256.203 248.289C256.155 248.307 256.105 248.316 256.057 248.316Z" fill="#FF8767"/>
<path d="M256.705 251.385C256.571 251.385 256.44 251.32 256.362 251.2C250.448 242.107 245.318 233.219 247.806 229.773C251.896 223.353 259.782 228.138 266.119 231.983C269.565 234.074 272.819 236.047 274.4 235.509C274.801 235.373 275.089 235.064 275.281 234.567C275.362 234.356 275.598 234.252 275.809 234.333C276.02 234.414 276.125 234.651 276.043 234.862C275.763 235.588 275.299 236.066 274.664 236.283C272.718 236.944 269.464 234.969 265.695 232.683C259.35 228.832 252.157 224.467 248.482 230.232C246.263 233.307 251.568 242.33 257.047 250.754C257.17 250.944 257.117 251.197 256.927 251.32C256.859 251.364 256.781 251.385 256.705 251.385Z" fill="#FF8767"/>
<path d="M236.947 274.703C236.947 274.703 236.446 262.9 240.117 264.165C243.788 265.429 244.168 267.705 244.168 267.705C244.168 267.705 248.712 267.935 246.434 270.234C244.155 272.534 236.97 275.981 236.947 274.703Z" fill="#FF8767"/>
<path d="M237.352 275.376C237.197 275.376 237.066 275.357 236.963 275.316C236.704 275.212 236.545 274.988 236.538 274.716C236.499 273.783 236.231 265.746 238.555 264.013C239.046 263.646 239.632 263.566 240.251 263.779C243.327 264.838 244.233 266.597 244.483 267.318C245.261 267.389 247.014 267.661 247.405 268.671C247.62 269.226 247.391 269.849 246.724 270.522C244.856 272.407 239.266 275.376 237.352 275.376ZM237.351 274.578C238.428 274.72 244.069 272.04 246.143 269.946C246.379 269.709 246.758 269.264 246.642 268.966C246.446 268.46 245.038 268.158 244.147 268.113C243.956 268.103 243.796 267.961 243.765 267.772C243.75 267.692 243.348 265.71 239.984 264.551C239.619 264.426 239.32 264.462 239.044 264.668C237.389 265.901 237.259 272.134 237.351 274.578Z" fill="white"/>
<path d="M238.606 291.714C238.606 291.714 227.076 291.495 228.554 298.377C230.032 305.259 241.694 314.348 244.547 313.432C247.4 312.517 249.913 300.495 249.913 300.495C249.913 300.495 239.086 293.472 238.606 291.714Z" fill="#FF8767"/>
<path d="M244.094 313.903C243.016 313.903 241.574 313.214 240.471 312.576C236.026 310.005 229.273 303.67 228.155 298.463C227.81 296.858 228.102 295.477 229.022 294.36C231.619 291.209 238.33 291.301 238.613 291.306C238.795 291.309 238.952 291.432 239 291.607C239.32 292.777 246 297.47 250.136 300.152C250.277 300.244 250.348 300.414 250.313 300.579C250.051 301.833 247.665 312.861 244.672 313.821C244.496 313.878 244.302 313.903 244.094 313.903ZM238.348 292.124C237.123 292.139 231.734 292.353 229.652 294.881C228.889 295.808 228.66 296.924 228.954 298.291C230.022 303.267 236.567 309.373 240.88 311.868C242.489 312.799 243.812 313.241 244.422 313.043C246.312 312.437 248.439 305.425 249.455 300.685C247.305 299.283 239.552 294.142 238.348 292.124Z" fill="white"/>
<path d="M272.405 290.969L279.635 312.469C279.635 312.469 298.052 302.843 296.19 287.161C294.329 271.478 294.028 266.433 294.028 266.433L294.869 261.615L291.768 267.051L290.579 264.678L289.601 268.993C289.601 268.993 287 271.324 285.451 275.526C283.902 279.728 284.442 269.865 284.442 269.865C284.442 269.865 280.301 288.269 272.405 290.969Z" fill="#FF8767"/>
<path d="M279.635 312.878C279.584 312.878 279.532 312.868 279.483 312.848C279.372 312.804 279.286 312.713 279.248 312.599L272.017 291.099C271.946 290.886 272.059 290.655 272.272 290.582C279.865 287.986 284.003 269.957 284.043 269.775C284.09 269.568 284.288 269.431 284.498 269.46C284.709 269.489 284.862 269.675 284.85 269.887C284.726 272.162 284.719 274.775 284.891 275.822C284.941 275.711 285 275.568 285.068 275.384C286.482 271.547 288.729 269.259 289.23 268.78L290.18 264.588C290.219 264.419 290.358 264.293 290.53 264.272C290.701 264.253 290.867 264.34 290.945 264.494L291.791 266.185L294.514 261.413C294.612 261.24 294.822 261.161 295.007 261.231C295.194 261.298 295.306 261.49 295.272 261.685L294.439 266.455C294.475 267.003 294.851 272.406 296.596 287.112C298.469 302.892 280.011 312.733 279.824 312.831C279.765 312.862 279.7 312.878 279.635 312.878ZM272.918 291.213L279.866 311.873C282.581 310.315 297.434 301.113 295.784 287.209C293.943 271.694 293.623 266.508 293.62 266.457C293.618 266.426 293.62 266.394 293.625 266.363L294.063 263.852L292.123 267.254C292.05 267.381 291.915 267.46 291.768 267.46C291.765 267.46 291.761 267.46 291.757 267.46C291.607 267.455 291.47 267.369 291.403 267.234L290.725 265.882L290 269.083C289.981 269.166 289.937 269.241 289.874 269.297C289.849 269.32 287.327 271.619 285.835 275.667C285.581 276.356 285.266 277.083 284.707 276.966C284.459 276.914 283.949 276.809 283.929 273.387C282.334 278.793 278.66 288.874 272.918 291.213Z" fill="white"/>
<path d="M274.761 290.459C274.761 290.459 263.751 290.165 262.952 296.861C262.152 303.556 260.331 317.615 265.417 318.45C270.503 319.285 281.413 316.994 280.628 311.904C279.842 306.813 274.761 290.459 274.761 290.459Z" fill="#FF8767"/>
<path d="M267.735 319.024C266.85 319.024 266.04 318.967 265.351 318.853C260.008 317.976 261.618 304.55 262.483 297.336L262.546 296.813C263.38 289.828 274.311 290.042 274.772 290.05C274.947 290.055 275.099 290.17 275.151 290.338C275.359 291.007 280.25 306.779 281.031 311.841C281.228 313.115 280.791 314.293 279.732 315.341C277.192 317.858 271.717 319.024 267.735 319.024ZM274.459 290.867C272.745 290.884 264.033 291.251 263.358 296.909L263.295 297.433C262.521 303.881 260.912 317.296 265.483 318.047C269.506 318.708 276.503 317.389 279.157 314.761C280.019 313.906 280.378 312.967 280.224 311.966C279.508 307.332 275.139 293.073 274.459 290.867Z" fill="white"/>
<path d="M264.528 297.442C264.528 297.442 259.168 297.086 256.43 299.657C253.693 302.227 250.348 294.439 246.688 300.298C243.029 306.157 240.277 312.374 244.851 315.778C249.426 319.182 264.067 321.653 266.238 317.011C268.409 312.369 267.943 297.235 264.528 297.442Z" fill="#FF8767"/>
<path d="M259.259 319.971C253.985 319.972 247.413 318.193 244.607 316.106C239.6 312.38 242.904 305.585 246.341 300.081C248.679 296.341 251.016 297.729 252.894 298.843C254.341 299.701 255.272 300.183 256.151 299.359C258.917 296.761 264.074 297.007 264.53 297.032C265.14 297.008 265.712 297.343 266.185 298.038C268.528 301.487 268.466 313.212 266.608 317.184C266.081 318.31 264.911 319.109 263.128 319.558C261.998 319.843 260.675 319.971 259.259 319.971ZM249.762 298.461C248.878 298.461 247.991 298.984 247.035 300.514C243.783 305.72 240.624 312.123 245.095 315.45C248.445 317.943 257.875 320.039 262.929 318.766C264.461 318.38 265.45 317.731 265.867 316.838C267.758 312.795 267.537 301.483 265.509 298.498C265.203 298.048 264.88 297.826 264.552 297.85C264.535 297.85 264.518 297.85 264.501 297.85C264.449 297.846 259.285 297.538 256.71 299.955C255.337 301.243 253.818 300.342 252.477 299.547C251.53 298.984 250.647 298.461 249.762 298.461Z" fill="white"/>
<path d="M231.165 283.752C231.165 283.752 232.443 273.626 235.719 273.27C238.995 272.913 239.459 273.626 238.399 275.67C237.339 277.714 235.684 282.515 235.684 282.515L231.165 283.752Z" fill="#FF8767"/>
<path d="M231.165 284.16C231.067 284.16 230.972 284.126 230.897 284.06C230.794 283.971 230.742 283.836 230.759 283.7C230.894 282.631 232.179 273.244 235.674 272.864C237.684 272.647 238.679 272.814 239.111 273.445C239.564 274.106 239.189 275.036 238.762 275.858C237.728 277.852 236.087 282.601 236.071 282.649C236.027 282.776 235.922 282.874 235.792 282.91L231.273 284.146C231.237 284.156 231.201 284.16 231.165 284.16ZM237.11 273.591C236.756 273.591 236.314 273.617 235.763 273.676C233.502 273.922 232.111 280.144 231.654 283.194L235.369 282.178C235.701 281.228 237.088 277.312 238.036 275.482C238.563 274.466 238.545 274.065 238.437 273.907C238.328 273.749 237.997 273.591 237.11 273.591Z" fill="white"/>
<path d="M236.577 281.34C236.577 281.34 230.184 280.66 228.648 286.882C227.112 293.105 230.927 297.188 233.666 295.36C236.404 293.531 238.131 293.928 238.156 291.058C238.18 288.187 236.577 281.34 236.577 281.34Z" fill="#FF8767"/>
<path d="M232.265 296.211C231.637 296.211 230.999 295.999 230.398 295.577C228.566 294.291 227.192 291.074 228.251 286.784C229.854 280.292 236.553 280.926 236.62 280.934C236.793 280.952 236.936 281.078 236.975 281.247C237.041 281.528 238.589 288.175 238.565 291.062C238.545 293.328 237.483 293.835 236.011 294.538C235.391 294.833 234.688 295.169 233.893 295.7C233.382 296.041 232.828 296.211 232.265 296.211ZM235.971 281.723C234.431 281.723 230.231 282.176 229.045 286.98C228.084 290.873 229.316 293.818 230.867 294.908C231.728 295.513 232.642 295.552 233.439 295.02C234.283 294.456 235.046 294.092 235.659 293.799C237.082 293.12 237.732 292.81 237.747 291.054C237.768 288.6 236.55 283.066 236.247 281.728C236.168 281.725 236.076 281.723 235.971 281.723Z" fill="white"/>
<path d="M291.186 283.402C290.253 283.658 289.289 283.108 289.034 282.174C288.778 281.241 289.328 280.277 290.261 280.022C291.195 279.766 292.159 280.316 292.414 281.25C292.669 282.183 292.12 283.147 291.186 283.402Z" fill="white"/>
<path d="M326.66 272.26C322.641 272.26 320.647 267.043 318.359 261.061C315.691 254.083 312.667 246.175 305.731 245.436C305.66 245.432 305.589 245.43 305.52 245.43C300.48 245.43 296.065 255.643 292.405 265.674C292.328 265.886 292.093 265.994 291.881 265.918C291.669 265.841 291.56 265.606 291.637 265.394C295.581 254.586 299.992 244.614 305.534 244.614C305.621 244.614 305.709 244.617 305.797 244.622C313.252 245.416 316.371 253.572 319.123 260.769C321.433 266.81 323.43 272.021 327.347 271.384C327.572 271.344 327.78 271.498 327.816 271.721C327.853 271.944 327.702 272.154 327.479 272.191C327.197 272.237 326.923 272.26 326.66 272.26Z" fill="#FF8767"/>
<path d="M316.215 269.335C315.932 269.335 315.655 269.281 315.386 269.172C313.35 268.345 312.095 264.446 310.643 259.931C308.804 254.216 306.72 247.738 302.687 245.929C302.481 245.837 302.389 245.595 302.482 245.389C302.574 245.183 302.815 245.091 303.022 245.184C307.387 247.141 309.531 253.803 311.421 259.681C312.753 263.821 314.011 267.732 315.693 268.414C316.125 268.59 316.586 268.542 317.102 268.268C317.301 268.16 317.548 268.237 317.654 268.437C317.761 268.636 317.685 268.884 317.485 268.989C317.051 269.22 316.626 269.335 316.215 269.335Z" fill="#FF8767"/>
<path d="M293.571 252.628C293.53 252.628 293.489 252.622 293.448 252.609C293.233 252.541 293.113 252.312 293.181 252.096C294.544 247.766 296.156 245.438 298.108 244.977C299.878 244.451 301.538 244.518 303.022 245.184C303.228 245.276 303.32 245.518 303.227 245.724C303.135 245.93 302.894 246.022 302.687 245.929C301.369 245.338 299.939 245.285 298.319 245.767C296.671 246.156 295.213 248.366 293.961 252.342C293.906 252.517 293.744 252.628 293.571 252.628Z" fill="#FF8767"/>
<path d="M290.383 268.899C290.364 268.899 290.345 268.897 290.326 268.895C290.102 268.864 289.946 268.658 289.978 268.434C291.029 260.829 292.018 255.791 293.181 252.096C293.249 251.881 293.478 251.762 293.694 251.829C293.909 251.897 294.029 252.126 293.961 252.342C292.812 255.991 291.833 260.988 290.787 268.546C290.759 268.751 290.584 268.899 290.383 268.899Z" fill="#FF8767"/>
<path d="M21.4665 284.21L21.9392 292.925L27.7663 293.908L28.2847 283.629L21.4665 284.21Z" fill="white"/>
<path d="M27.7665 294.317C27.7438 294.317 27.721 294.315 27.6986 294.311L21.8713 293.328C21.6825 293.297 21.5412 293.138 21.5313 292.947L21.0586 284.232C21.0466 284.011 21.212 283.821 21.4318 283.803L28.2503 283.221C28.3681 283.21 28.4842 283.253 28.569 283.334C28.6539 283.417 28.6995 283.531 28.6935 283.649L28.1749 293.929C28.169 294.045 28.1136 294.153 28.0225 294.226C27.9492 294.285 27.8587 294.317 27.7665 294.317ZM22.3294 292.576L27.3813 293.428L27.8531 284.076L21.896 284.583L22.3294 292.576Z" fill="#272626"/>
<path d="M27.9287 308.645C25.4677 308.866 21.4449 309.368 16.7734 308.479C15.2461 308.188 14.3009 306.642 14.748 305.152C15.9956 300.996 18.1826 293.1 21.432 289.554L22.1359 291.29L23.2374 289.763C23.3943 289.511 23.6616 289.349 23.9572 289.327L26.2731 289.151C26.7569 289.115 27.1878 289.455 27.2636 289.935L27.3289 290.98L28.8827 289.472L29.2783 298.686C29.3554 300.482 29.5595 301.868 29.8891 303.635L30.2971 305.823C30.4129 307.254 29.3586 308.517 27.9287 308.645Z" fill="white"/>
<path d="M22.3858 309.396C20.6637 309.396 18.7422 309.269 16.6972 308.88C15.853 308.72 15.1134 308.207 14.6679 307.473C14.2244 306.742 14.1106 305.853 14.3562 305.035L14.6253 304.133C15.9022 299.839 18.0397 292.651 21.1305 289.278C21.2251 289.175 21.3659 289.126 21.5041 289.152C21.6422 289.176 21.7579 289.271 21.8107 289.4L22.2369 290.451L22.906 289.524C23.1151 289.186 23.5023 288.951 23.9262 288.92L26.2421 288.744C26.9358 288.689 27.5586 289.186 27.6672 289.871L27.6799 290.069L28.5979 289.178C28.7133 289.065 28.8845 289.032 29.0339 289.092C29.1831 289.151 29.2841 289.293 29.2909 289.454L29.6869 298.668C29.764 300.464 29.9668 301.822 30.2912 303.56L30.6991 305.748C30.7014 305.762 30.7034 305.776 30.7047 305.79C30.838 307.441 29.609 308.905 27.9649 309.052L27.3115 309.113C25.9906 309.237 24.3129 309.396 22.3858 309.396ZM21.3056 290.33C18.5662 293.748 16.6047 300.346 15.4088 304.367L15.1393 305.27C14.9574 305.876 15.0384 306.507 15.3669 307.049C15.6927 307.585 16.233 307.96 16.8497 308.077C21.0705 308.881 24.78 308.531 27.2348 308.299L27.8922 308.238C29.0845 308.131 29.9769 307.074 29.8912 305.876L29.4873 303.711C29.1648 301.981 28.9488 300.54 28.8703 298.704L28.5133 290.4L27.6132 291.274C27.499 291.385 27.3302 291.418 27.1813 291.362C27.0325 291.304 26.9306 291.165 26.9207 291.006L26.8555 289.961C26.8176 289.732 26.5706 289.547 26.3038 289.559L23.9874 289.735C23.8222 289.747 23.6713 289.839 23.5839 289.979L22.467 291.529C22.3804 291.65 22.2387 291.716 22.087 291.696C21.9394 291.678 21.8128 291.582 21.7569 291.444L21.3056 290.33Z" fill="#272626"/>
<path d="M22.6297 306.737C20.6994 306.737 18.4895 306.542 16.3097 305.928C16.0926 305.867 15.9661 305.641 16.0271 305.424C16.0881 305.207 16.3173 305.08 16.5313 305.141C22.1878 306.734 28.2711 305.36 28.3323 305.345C28.5477 305.296 28.7716 305.431 28.8224 305.651C28.8735 305.871 28.7365 306.091 28.5166 306.141C28.3557 306.179 25.8924 306.737 22.6297 306.737Z" fill="#272626"/>
<path d="M25.6891 300.282C25.6868 300.282 25.6843 300.282 25.6819 300.282L20.1782 300.186C19.9527 300.182 19.7727 299.996 19.7767 299.77C19.7806 299.544 19.9662 299.382 20.1927 299.368L25.6963 299.464C25.9219 299.468 26.1019 299.654 26.0979 299.88C26.094 300.103 25.912 300.282 25.6891 300.282Z" fill="#272626"/>
<path d="M49.1552 280.978L49.3957 293.674L56.4492 294.03L57.4152 281.395L49.1552 280.978Z" fill="white"/>
<path d="M56.4495 294.438C56.4423 294.438 56.4355 294.438 56.4284 294.438L49.3748 294.082C49.1604 294.072 48.9909 293.896 48.9869 293.682L48.7466 280.986C48.7446 280.873 48.7898 280.764 48.8708 280.685C48.9521 280.606 49.0564 280.561 49.1761 280.57L57.4359 280.987C57.5457 280.992 57.649 281.042 57.7217 281.125C57.7948 281.207 57.8312 281.316 57.8227 281.426L56.8567 294.061C56.8403 294.275 56.6619 294.438 56.4495 294.438ZM49.7971 293.285L56.0719 293.601L56.9756 281.782L49.5724 281.409L49.7971 293.285Z" fill="#272626"/>
<path d="M47.1928 300.723C47.1147 301.919 47.8793 303.011 49.0315 303.341C53.039 304.49 62.0677 307.051 64.6537 307.571C68.0102 308.245 72.2188 307.418 74.1052 305.53C75.9916 303.643 70.4418 298.628 67.7816 296.771C63.8295 294.012 60.1638 288.769 58.5314 288.459C56.899 288.149 53.5898 292.764 53.5898 292.764L48.68 290.404C48.68 290.404 47.589 294.658 47.1928 300.723Z" fill="white"/>
<path d="M67.0857 308.212C66.2347 308.212 65.3853 308.135 64.5729 307.971C62.0607 307.467 53.6869 305.1 48.9188 303.734C47.5921 303.354 46.6948 302.076 46.785 300.697C47.179 294.663 48.273 290.345 48.2838 290.302C48.3142 290.184 48.3963 290.085 48.5074 290.033C48.6184 289.982 48.7461 289.982 48.8571 290.035L53.4599 292.248C54.3433 291.056 56.9625 287.736 58.6075 288.057C59.5552 288.237 60.83 289.575 62.5947 291.427C64.2273 293.141 66.0779 295.083 68.0154 296.435C70.1614 297.934 74.6652 301.842 74.8882 304.364C74.94 304.95 74.7737 305.439 74.3941 305.819C72.9058 307.309 69.9884 308.212 67.0857 308.212ZM48.9608 290.992C48.6714 292.271 47.9134 295.959 47.6009 300.75C47.5354 301.749 48.1845 302.673 49.144 302.949C52.9728 304.045 62.1568 306.652 64.7342 307.17C68.0764 307.842 72.0649 306.994 73.8159 305.242C74.0218 305.035 74.1041 304.779 74.0738 304.437C73.903 302.506 70.174 298.939 67.5476 297.106C65.5429 295.707 63.6621 293.733 62.0029 291.992C60.5328 290.449 59.1445 288.991 58.4551 288.86C57.4984 288.68 55.2331 291.174 53.9218 293.002C53.806 293.162 53.5929 293.218 53.4124 293.132L48.9608 290.992Z" fill="#272626"/>
<path d="M67.3093 304.957C60.5155 304.957 50.3252 301.235 49.7868 301.036C49.575 300.957 49.4666 300.722 49.5445 300.511C49.6232 300.299 49.8586 300.192 50.0694 300.269C50.2323 300.329 66.3857 306.233 71.2786 303.369C71.4727 303.254 71.7232 303.32 71.8379 303.515C71.9516 303.71 71.8861 303.96 71.6914 304.074C70.6139 304.705 69.0754 304.957 67.3093 304.957Z" fill="#272626"/>
<path d="M59.0318 297.813C58.9128 297.813 58.7951 297.761 58.7145 297.662C58.5719 297.487 58.5984 297.23 58.7731 297.087L62.5242 294.032C62.6998 293.889 62.9576 293.917 63.0993 294.091C63.2418 294.266 63.2154 294.523 63.0406 294.666L59.2896 297.721C59.2138 297.783 59.1223 297.813 59.0318 297.813Z" fill="#272626"/>
<path d="M23.858 197.018C23.858 197.018 19.678 236.457 17.8458 250.052C16.0134 263.647 18.7253 285.786 18.7253 285.786L29.6418 285.763C29.6418 285.763 31.184 266.117 32.3686 255.898C32.6591 253.392 33.3528 250.953 34.4053 248.66C36.0586 245.058 38.6502 238.854 39.8362 233.044C41.6512 224.153 47.0078 210.236 47.0078 210.236C47.0078 210.236 47.2166 281.058 47.3001 286.625C47.3001 286.625 55.8186 287.436 58.9767 285.664C58.9767 285.664 65.699 260.183 65.6268 246.132C65.5546 232.08 68.1655 197.309 68.1655 197.309L23.858 197.018Z" fill="white"/>
<path d="M51.6125 287.222C49.3134 287.222 47.4254 287.048 47.2612 287.032C47.0537 287.012 46.8944 286.84 46.8912 286.631C46.817 281.687 46.642 224.581 46.6057 212.477C45.0505 216.703 41.6069 226.412 40.2365 233.126C39.017 239.098 36.2924 245.529 34.7768 248.831C33.7314 251.108 33.0576 253.502 32.7741 255.945C31.6041 266.039 30.0642 285.598 30.0491 285.795C30.0324 286.007 29.8554 286.171 29.6423 286.172L18.726 286.195C18.7257 286.195 18.7256 286.195 18.7251 286.195C18.5188 286.195 18.3448 286.041 18.3196 285.836C18.2924 285.614 15.6221 263.489 17.4406 249.997C19.2513 236.564 23.4098 197.369 23.4517 196.975C23.4737 196.767 23.6494 196.609 23.8582 196.609C23.8589 196.609 23.8598 196.609 23.8611 196.609L68.1682 196.901C68.2813 196.901 68.3895 196.949 68.466 197.032C68.5426 197.116 68.5813 197.227 68.5729 197.34C68.547 197.687 65.964 232.255 66.0354 246.13C66.1072 260.074 59.4393 285.514 59.3718 285.769C59.3434 285.876 59.2732 285.967 59.1767 286.021C57.4471 286.991 54.2576 287.222 51.6125 287.222ZM47.7038 286.249C49.3229 286.374 55.8816 286.779 58.6263 285.388C59.2131 283.126 65.2863 259.369 65.218 246.134C65.1511 233.078 67.425 201.785 67.7256 197.715L24.2256 197.429C23.7961 201.468 19.9689 237.362 18.2514 250.107C16.5738 262.552 18.7523 282.459 19.0887 285.376L29.2641 285.355C29.4844 282.58 30.8807 265.182 31.9625 255.851C32.2559 253.322 32.9528 250.845 34.0337 248.49C35.5349 245.22 38.233 238.854 39.4361 232.962C41.2366 224.14 46.5727 210.229 46.6262 210.09C46.6973 209.906 46.8877 209.798 47.082 209.835C47.2751 209.87 47.416 210.039 47.4164 210.235C47.4185 210.93 47.6183 278.547 47.7038 286.249Z" fill="#272626"/>
<path d="M27.643 252.351C26.5904 252.351 25.5426 252.051 24.6449 251.468C24.4558 251.345 24.4018 251.092 24.5247 250.903C24.6486 250.713 24.9014 250.66 25.0903 250.782C26.3092 251.575 27.8529 251.753 29.22 251.26C29.4335 251.182 29.6671 251.293 29.7433 251.505C29.82 251.718 29.7102 251.952 29.4978 252.029C28.8985 252.245 28.2698 252.351 27.643 252.351Z" fill="#272626"/>
<path d="M25.1272 208.82C24.9204 208.82 24.7432 208.664 24.7213 208.454C24.6977 208.229 24.8606 208.028 25.0849 208.005C26.8172 207.823 28.8769 206.594 29.4637 203.687C29.508 203.466 29.722 203.321 29.9456 203.367C30.1668 203.412 30.3101 203.628 30.2653 203.849C29.5906 207.19 27.1909 208.607 25.1704 208.818C25.1554 208.819 25.1412 208.82 25.1272 208.82Z" fill="#272626"/>
<path d="M53.5823 273.79C53.5728 273.79 53.5636 273.79 53.5538 273.79C53.3283 273.774 53.1588 273.579 53.1739 273.354C53.6246 266.811 61.3914 255.45 61.7219 254.97C61.8501 254.784 62.1048 254.737 62.2903 254.864C62.4763 254.992 62.5234 255.247 62.3958 255.433C62.3159 255.549 54.4245 267.09 53.9898 273.41C53.9747 273.626 53.7956 273.79 53.5823 273.79Z" fill="#272626"/>
<path d="M64.3362 140.757C66.7259 133.873 70.2474 134.815 72.7823 136.817C74.6045 138.257 75.8294 140.331 76.24 142.617C76.5787 144.503 77.2755 147.251 78.6831 149.814C81.3172 154.612 91.0554 156.542 94.4522 156.529C95.9345 156.523 99.91 151.766 102.462 152.572C104.295 153.151 100.877 156.061 101.304 156.27C102.891 157.047 104.398 156.88 105.837 156.874C108.171 156.864 110.256 156.232 111.13 156.227C112.236 156.221 112.607 157.353 112.149 158.361C111.494 159.801 110.064 161.982 107.701 162.743C103.477 164.105 96.2526 162.83 93.732 162.341C91.8123 161.968 69.1901 163.372 66.3097 153.933C65.7107 151.97 63.3306 143.655 64.3362 140.757Z" fill="white"/>
<path d="M102.855 163.758C99.5417 163.758 95.9683 163.192 93.6544 162.742C93.3826 162.689 92.4992 162.674 91.3812 162.655C85.1032 162.549 68.4256 162.266 65.9193 154.052C65.4013 152.355 62.8721 143.729 63.9503 140.623C65.044 137.473 66.4966 135.613 68.2676 135.096C69.7177 134.674 71.3236 135.144 73.036 136.496C74.9296 137.993 76.2104 140.141 76.6424 142.544C76.9718 144.378 77.6555 147.093 79.0415 149.617C81.5674 154.218 91.0946 156.114 94.4507 156.12C94.8917 156.119 95.928 155.334 96.8422 154.642C98.6174 153.299 100.827 151.623 102.585 152.183C103.1 152.345 103.295 152.658 103.368 152.892C103.619 153.698 102.809 154.742 102.157 155.582C102.044 155.727 101.906 155.905 101.805 156.048C102.963 156.52 104.099 156.498 105.2 156.475C105.413 156.47 105.625 156.466 105.835 156.465C107.249 156.459 108.605 156.213 109.595 156.033C110.246 155.914 110.761 155.821 111.127 155.819C111.132 155.819 111.136 155.819 111.14 155.819C111.711 155.819 112.183 156.063 112.471 156.507C112.823 157.049 112.842 157.825 112.521 158.53C112.026 159.618 110.578 162.246 107.827 163.133C106.416 163.587 104.675 163.758 102.855 163.758ZM64.7221 140.892C63.7067 143.818 66.3914 152.799 66.7007 153.814C69.0338 161.459 85.2794 161.734 91.3949 161.838C92.6873 161.86 93.4678 161.873 93.8098 161.94C97.3173 162.621 103.769 163.58 107.576 162.354C110.017 161.568 111.327 159.181 111.777 158.191C111.98 157.744 111.983 157.258 111.785 156.951C111.649 156.742 111.432 156.636 111.14 156.636C111.137 156.636 111.135 156.636 111.132 156.636C110.837 156.638 110.329 156.73 109.741 156.837C108.721 157.022 107.325 157.276 105.838 157.282C105.633 157.283 105.425 157.288 105.217 157.292C103.914 157.319 102.571 157.345 101.125 156.638C100.996 156.575 100.903 156.459 100.871 156.319C100.798 156.001 101.036 155.693 101.512 155.08C101.931 154.54 102.712 153.534 102.587 153.136C102.566 153.066 102.482 153.007 102.339 152.962C100.981 152.534 98.9605 154.064 97.3356 155.294C96.1246 156.211 95.1677 156.935 94.454 156.938C94.4416 156.938 94.4281 156.938 94.4156 156.938C90.7656 156.938 81.0426 154.961 78.3246 150.011C76.886 147.39 76.1782 144.582 75.8379 142.689C75.4415 140.482 74.2663 138.511 72.5291 137.138C71.0358 135.959 69.6779 135.536 68.4967 135.88C66.9943 136.319 65.7245 138.005 64.7221 140.892Z" fill="#272626"/>
<path d="M17.2524 150.763C17.2524 150.763 15.7353 127.5 29.5581 122.443C42.8655 117.574 60.4637 117.469 69.9646 123.764C74.6556 126.872 78.9285 145.878 78.9285 145.878L71.4638 154.32C71.4638 154.32 71.8969 196.128 69.3377 207.031C69.3377 207.031 56.9271 207.848 51.798 205.523C46.6689 203.198 29.6081 199.443 21.1926 202.807L25.3484 150.112L17.2524 150.763Z" fill="#272626"/>
<path d="M33.0789 192.912C32.8756 192.912 32.6996 192.761 32.6737 192.554C32.6458 192.33 32.8045 192.126 33.0285 192.098C52.7998 189.622 59.1726 176.369 59.2343 176.236C59.3297 176.031 59.5729 175.941 59.7772 176.037C59.982 176.133 60.0709 176.376 59.9759 176.58C59.9116 176.718 53.3454 190.378 33.1298 192.909C33.1129 192.911 33.0956 192.912 33.0789 192.912Z" fill="white"/>
<path d="M70.6312 168.77L49.5866 169.444C48.9116 169.466 48.4222 168.808 48.637 168.168L57.2615 142.467C57.3904 142.083 57.7443 141.82 58.1491 141.807L79.1936 141.132C79.8686 141.111 80.358 141.769 80.1433 142.409L71.5188 168.11C71.3899 168.493 71.0358 168.757 70.6312 168.77Z" fill="white"/>
<path d="M49.5561 169.853C49.121 169.853 48.7102 169.648 48.45 169.298C48.1809 168.936 48.1063 168.465 48.2496 168.037L56.874 142.337C57.0563 141.794 57.5634 141.416 58.1361 141.398L79.1805 140.724C79.6351 140.699 80.061 140.917 80.3301 141.278C80.5992 141.64 80.6741 142.111 80.5308 142.539L71.9065 168.239C71.7241 168.783 71.2167 169.16 70.6443 169.178L49.6 169.853C49.5852 169.853 49.5703 169.853 49.5561 169.853ZM79.2255 141.541C79.2192 141.541 79.2127 141.541 79.2067 141.541L58.1624 142.215C57.9293 142.222 57.7228 142.376 57.649 142.597L49.0247 168.297C48.9651 168.474 48.9952 168.661 49.1061 168.81C49.2175 168.96 49.4063 169.041 49.5735 169.036L70.6179 168.361C70.8506 168.353 71.0569 168.2 71.1312 167.979L79.7556 142.278C79.8146 142.102 79.7851 141.915 79.6742 141.766C79.5667 141.622 79.4038 141.541 79.2255 141.541Z" fill="#272626"/>
<path d="M19.6123 149.583L30.8224 149.077C30.8224 149.077 30.9066 158.517 31.918 158.685C35.5215 159.286 43.068 159.316 47.9793 158.723C49.6896 158.517 51.0439 157.208 51.3656 155.515C51.6084 154.237 52.3005 152.736 54.0564 151.655C55.7535 150.611 54.0798 153.897 55.6669 156.013C56.5195 157.15 59.2186 156.646 62.8995 155.793C66.5803 154.941 67.515 158.874 63.3898 161.251C58.9177 163.828 56.076 163.539 54.6501 163.84C51.8093 164.442 26.6925 168.378 22.8154 166.271C19.8199 164.643 19.6123 149.583 19.6123 149.583Z" fill="white"/>
<path d="M27.6853 167.298C25.3243 167.298 23.4976 167.107 22.62 166.63C19.5045 164.937 19.225 151.154 19.2036 149.588C19.2003 149.368 19.3733 149.184 19.594 149.174L30.804 148.668C30.9106 148.662 31.0231 148.704 31.1034 148.78C31.184 148.856 31.2299 148.962 31.2312 149.073C31.2666 153.067 31.5908 157.664 32.0557 158.294C35.7137 158.888 43.1002 158.901 47.9301 158.317C49.4526 158.134 50.6721 156.977 50.9638 155.439C51.2963 153.69 52.2919 152.261 53.8419 151.307C54.1228 151.134 54.5379 150.929 54.8976 151.131C55.3222 151.37 55.3175 151.923 55.311 152.689C55.3035 153.594 55.293 154.834 55.9936 155.768C56.706 156.716 59.6231 156.133 62.8069 155.395C64.8359 154.924 65.9623 155.782 66.34 156.741C66.8474 158.029 66.2043 160.101 63.5937 161.605C60.002 163.675 57.4746 163.931 55.8021 164.101C55.3814 164.144 55.0176 164.181 54.7343 164.241C53.3134 164.541 36.6551 167.298 27.6853 167.298ZM20.0278 149.973C20.1192 154.36 20.7958 164.709 23.0104 165.912C26.7241 167.93 51.6723 164.053 54.5651 163.441C54.8916 163.372 55.2752 163.333 55.7194 163.288C57.3229 163.125 59.7453 162.88 63.1858 160.897C65.3764 159.635 65.9623 158.013 65.5797 157.041C65.2567 156.222 64.2657 155.896 62.9914 156.192C59.1486 157.081 56.3518 157.607 55.3398 156.258C54.4733 155.103 54.4855 153.646 54.4936 152.682C54.496 152.418 54.4989 152.077 54.4701 151.896C54.4234 151.916 54.3583 151.949 54.2704 152.003C52.9017 152.845 52.0595 154.053 51.7668 155.592C51.4079 157.481 49.9054 158.902 48.0282 159.129C43.1041 159.723 35.5456 159.705 31.8509 159.089C31.5217 159.034 30.5304 158.868 30.4179 149.504L20.0278 149.973Z" fill="#272626"/>
<path d="M51.6104 113.085C50.4615 114.035 48.2532 115.154 46.6158 114.223C45.3964 113.53 44.7803 111.863 44.9178 109.995C44.3364 110.014 43.5788 109.935 43.0611 109.428C42.2641 108.649 42.4887 107.3 42.5661 106.41C42.9243 102.303 40.5658 101.551 41.2914 98.7885C41.8616 96.617 43.6515 95.3964 43.986 95.1682C45.6758 94.0156 46.7581 94.4698 49.5301 93.8909C54.1952 92.9171 54.442 90.94 57.4759 91.0838C57.6514 91.0923 61.7772 91.3459 63.0346 94.2685C64.0572 96.6456 62.5839 99.3978 61.1331 100.81C59.2545 102.638 58.0229 101.625 56.1532 103.144C52.8715 105.81 55.0236 110.263 51.6104 113.085Z" fill="#272626"/>
<path d="M61.0595 105.298C60.1483 104.428 59.1846 102.708 58.8872 101.484C57.802 97.0152 53.7439 96.1904 53.3238 100.538C53.2119 101.696 48.9764 101.422 49.418 102.666C50.5693 105.908 50.6411 105.055 48.7315 106.132C48.5212 106.13 48.3112 106.165 48.1099 106.247C47.1387 106.641 46.7376 107.913 47.2146 109.087C47.5041 109.799 48.0512 110.307 48.653 110.512L48.3999 115.53C48.305 117.411 47.0818 119.048 45.3046 119.672L43.5755 120.279C43.5755 120.279 51.2164 125.834 59.521 120.577L58.4749 120.043C56.6328 119.103 55.4887 117.193 55.5277 115.125L55.5684 114.144C56.1052 114.219 56.6293 114.209 57.1186 114.093C59.3947 113.553 60.2698 111.007 60.0504 107.774L61.0402 106.874C61.5028 106.454 61.5116 105.73 61.0595 105.298Z" fill="white"/>
<path d="M51.9893 123.231C47.0245 123.231 43.3885 120.648 43.3354 120.609C43.2125 120.52 43.1495 120.37 43.1714 120.22C43.1934 120.069 43.2971 119.944 43.4405 119.893L45.1698 119.286C46.7976 118.715 47.9053 117.232 47.9918 115.51L48.2305 110.779C47.6171 110.48 47.1181 109.933 46.8363 109.24C46.57 108.585 46.532 107.878 46.7297 107.251C46.9365 106.597 47.3719 106.105 47.9567 105.868C48.1655 105.783 48.3886 105.735 48.6222 105.725C48.9331 105.553 49.1867 105.434 49.3942 105.336C49.5814 105.248 49.7935 105.148 49.8341 105.098C49.8485 104.998 49.6709 104.525 49.4657 103.979C49.3463 103.661 49.2011 103.275 49.0333 102.802C48.9455 102.555 48.9615 102.311 49.0796 102.096C49.3777 101.555 50.224 101.363 51.2043 101.141C51.7519 101.017 52.8923 100.758 52.9175 100.498C53.1035 98.5704 54.0101 97.3629 55.342 97.2684C56.7965 97.161 58.5956 98.5489 59.2845 101.387C59.5675 102.553 60.51 104.209 61.3417 105.003C61.6391 105.287 61.8067 105.685 61.8016 106.096C61.7968 106.506 61.6197 106.901 61.3155 107.177L60.4709 107.945C60.6696 111.571 59.4881 113.951 57.2132 114.49C56.8208 114.584 56.4009 114.618 55.959 114.593L55.9363 115.142C55.9009 117.031 56.9702 118.816 58.661 119.679L59.7072 120.213C59.8377 120.279 59.9226 120.411 59.9294 120.558C59.9363 120.705 59.8639 120.844 59.7399 120.922C57.0172 122.646 54.3527 123.231 51.9893 123.231ZM44.5137 120.383C46.4852 121.511 52.3613 124.2 58.6792 120.606L58.2888 120.407C56.3217 119.402 55.0775 117.326 55.1189 115.117L55.16 114.127C55.1648 114.011 55.2179 113.904 55.3065 113.83C55.3951 113.756 55.5085 113.723 55.6251 113.739C56.1304 113.809 56.6027 113.795 57.0246 113.695C59.7053 113.059 59.7485 109.362 59.6427 107.802C59.6342 107.677 59.6834 107.556 59.7757 107.472L60.7652 106.572C60.9042 106.445 60.9819 106.273 60.9842 106.085C60.9862 105.898 60.9128 105.723 60.7771 105.594C59.8191 104.679 58.8144 102.916 58.4898 101.58C57.9138 99.2076 56.4765 97.9973 55.3994 98.0835C54.4992 98.1474 53.8753 99.0794 53.7304 100.576C53.6482 101.425 52.4974 101.686 51.3841 101.938C50.8936 102.049 49.8725 102.28 49.7938 102.493C49.9686 102.995 50.1124 103.377 50.2301 103.691C50.7858 105.17 50.9176 105.521 49.7416 106.075C49.5265 106.176 49.259 106.302 48.9322 106.487C48.8695 106.522 48.7856 106.537 48.7282 106.54C48.5554 106.534 48.406 106.567 48.264 106.625C47.9087 106.769 47.6408 107.079 47.5091 107.497C47.3681 107.943 47.3982 108.453 47.5933 108.932C47.8253 109.504 48.2707 109.95 48.7849 110.125C48.9574 110.184 49.0704 110.35 49.0612 110.532L48.8081 115.55C48.7048 117.606 47.3827 119.375 45.44 120.057L44.5137 120.383Z" fill="#272626"/>
<path d="M55.569 114.553C55.5418 114.553 55.5139 114.55 55.4863 114.544C52.2415 113.878 50.8963 111.305 50.8409 111.196C50.7383 110.994 50.8182 110.748 51.0193 110.646C51.2209 110.544 51.466 110.623 51.569 110.823C51.5886 110.862 52.8121 113.16 55.6509 113.743C55.8721 113.789 56.0145 114.005 55.9689 114.226C55.9295 114.42 55.759 114.553 55.569 114.553Z" fill="#272626"/>
<path d="M9.40093 82.8605C9.34387 82.8605 9.28555 82.8486 9.23011 82.823C9.02527 82.7284 8.93545 82.4857 9.03013 82.2805C11.2099 77.5501 13.6907 72.9149 16.4038 68.5046C16.5215 68.3122 16.7726 68.2522 16.9663 68.3708C17.1584 68.4889 17.2185 68.7409 17.1001 68.9333C14.404 73.3158 11.9389 77.9216 9.77263 82.6231C9.70351 82.7723 9.55573 82.8605 9.40093 82.8605Z" fill="#333333"/>
<path d="M26.9374 54.8268C26.8555 54.8268 26.7735 54.8025 26.7015 54.7513C26.517 54.6208 26.4739 54.3658 26.6044 54.1818C42.0281 32.4258 66.5904 18.8547 84.4797 11.3004C103.849 3.12121 119.791 0.0376362 119.95 0.00721622C120.172 -0.0343638 120.386 0.111072 120.428 0.332472C120.47 0.554052 120.324 0.767897 120.103 0.810377C119.945 0.840257 104.072 3.91195 84.7801 12.0607C66.9945 19.573 42.5802 33.0608 27.271 54.6543C27.1916 54.7668 27.0656 54.8268 26.9374 54.8268Z" fill="#333333"/>
<path d="M62.0578 14.6876C61.9105 14.6876 61.7687 14.6083 61.6953 14.4689C61.5903 14.269 61.6674 14.0218 61.8673 13.9169C67.2884 11.07 72.9832 8.59609 78.7934 6.56263C79.0078 6.48955 79.2397 6.60096 79.3144 6.81372C79.3885 7.02684 79.2764 7.25994 79.0633 7.33464C73.2905 9.35442 67.6333 11.8125 62.2473 14.641C62.1867 14.6725 62.1217 14.6876 62.0578 14.6876Z" fill="#333333"/>
<path d="M0.408853 82.8605C0.362233 82.8605 0.31507 82.8526 0.26881 82.8356C0.0564104 82.7582 -0.0524861 82.5235 0.0249139 82.3115C0.0596539 82.2161 3.59233 72.6574 11.7339 60.223C19.2462 48.7494 32.3376 32.3984 52.0406 19.6596C52.2301 19.5363 52.4829 19.5914 52.6058 19.7809C52.7284 19.9705 52.674 20.2235 52.4845 20.3461C32.9104 33.0017 19.8998 49.2484 12.4321 60.6494C4.33591 73.0094 0.827174 82.4976 0.792974 82.5917C0.732314 82.7579 0.575713 82.8605 0.408853 82.8605Z" fill="#333333"/>
<path d="M87.0626 7.35732C85.034 7.35732 83.384 5.70726 83.384 3.67866C83.384 1.65006 85.034 0 87.0626 0C89.0912 0 90.7413 1.65024 90.7413 3.67866C90.7413 5.70726 89.0912 7.35732 87.0626 7.35732ZM87.0626 0.817558C85.4851 0.817558 84.2014 2.10132 84.2014 3.67884C84.2014 5.25636 85.4851 6.54012 87.0626 6.54012C88.6402 6.54012 89.9239 5.25636 89.9239 3.67884C89.9237 2.10114 88.6402 0.817558 87.0626 0.817558Z" fill="#333333"/>
<path d="M255.007 329.4C254.816 329.4 254.645 329.265 254.606 329.07C254.563 328.849 254.707 328.634 254.928 328.59C282.145 323.225 299.501 311.225 309.269 302.103C319.837 292.232 324.024 283.54 324.066 283.454C324.162 283.25 324.407 283.163 324.61 283.259C324.814 283.356 324.901 283.599 324.804 283.804C324.763 283.892 320.508 292.724 309.826 302.7C299.981 311.895 282.492 323.99 255.086 329.392C255.06 329.398 255.033 329.4 255.007 329.4Z" fill="#333333"/>
<path d="M303.839 316.525C303.693 316.525 303.552 316.447 303.478 316.31C303.371 316.111 303.446 315.863 303.645 315.756C321.586 306.117 333.477 285.476 333.595 285.269C333.707 285.073 333.957 285.003 334.152 285.116C334.349 285.228 334.417 285.477 334.306 285.674C334.186 285.883 322.178 306.727 304.032 316.476C303.97 316.509 303.904 316.525 303.839 316.525Z" fill="#333333"/>
<path d="M327.486 281.491C325.578 281.491 324.026 279.939 324.026 278.031C324.026 276.123 325.578 274.571 327.486 274.571C327.712 274.571 327.895 274.753 327.895 274.979C327.895 275.205 327.712 275.388 327.486 275.388C326.029 275.388 324.843 276.574 324.843 278.031C324.843 279.488 326.029 280.673 327.486 280.673C328.943 280.673 330.129 279.488 330.129 278.031C330.129 277.805 330.312 277.622 330.538 277.622C330.764 277.622 330.947 277.805 330.947 278.031C330.947 279.938 329.394 281.491 327.486 281.491Z" fill="#333333"/>
</svg>
