<svg width="112" height="100" viewBox="0 0 112 100" fill="none" xmlns="http://www.w3.org/2000/svg">
<rect width="111.313" height="100" rx="10" fill="#EBEDFC"/>
<rect x="0.5" y="0.5" width="110.313" height="99" rx="9.5" stroke="#414073" stroke-opacity="0.11"/>
<path d="M93.6542 87.4991L71.0408 80.46C69.3775 79.9423 67.9233 78.9063 66.8906 77.5033C65.858 76.1003 65.301 74.4039 65.301 72.6619V61.7319H44.8666V72.6619C44.8666 74.4039 44.3096 76.1003 43.277 77.5033C42.2443 78.9063 40.7901 79.9423 39.1268 80.46L16.5134 87.4991C16.5134 87.4991 9.91632 90.2628 8.48993 98.8211H102.275C102.275 98.8211 100.011 90.4411 93.6542 87.4991Z" fill="#F8D197"/>
<path d="M52.6188 73.3579C59.9067 72.0876 65.3009 63.644 65.3009 63.644C65.3009 63.644 58.0733 63.049 53.553 61.732H44.8666V72.6618C44.8658 73.2926 44.792 73.9212 44.6464 74.535L44.6462 74.5465C44.6462 74.5465 45.3308 74.6283 52.6188 73.3579Z" fill="#D8A353"/>
<path d="M72.421 38.4171C71.9712 38.3294 71.5078 38.3401 71.0626 38.4486C69.4777 27.506 62.9013 19.2999 55.0258 19.2999C47.1283 19.2999 40.5361 27.5511 38.9746 38.5393C38.4426 38.355 37.8718 38.3129 37.3185 38.4171C34.8798 38.9019 33.4866 42.231 34.2067 45.8528C34.9015 49.3479 37.3103 51.8297 39.6695 51.564C41.9853 60.1413 45.1012 66.7364 51.0735 67.8447C52.6788 68.1426 54.1052 67.1974 55.3823 67.1974C56.646 67.1974 58.1734 68.2837 59.2313 67.9028C65.6364 65.5969 68.2716 60.1301 70.4531 51.5838C72.6849 51.5576 74.8756 49.1585 75.5328 45.8528C76.2529 42.231 74.8596 38.9019 72.421 38.4171Z" fill="#F8D197"/>
<path d="M51.5489 36.9515C50.7445 37.1783 49.9171 37.3133 49.0823 37.3539C48.6742 37.3801 48.2675 37.3883 47.8615 37.3853C47.7599 37.3864 47.6587 37.3823 47.5574 37.3794C47.4542 37.3758 47.3539 37.3732 47.2678 37.3735C47.0874 37.368 46.9072 37.3696 46.7272 37.3785C45.998 37.4078 45.2741 37.5153 44.5679 37.6992C44.3862 37.7445 44.2058 37.7983 44.0222 37.8531C43.8305 37.9148 43.6298 37.9764 43.4309 38.0321C43.0237 38.1488 42.6083 38.2346 42.1882 38.2888C42.4637 37.967 42.763 37.6665 43.0836 37.3897C43.2413 37.2533 43.3961 37.1208 43.5619 36.9919C43.7371 36.8568 43.9211 36.7337 44.1128 36.6232C44.8938 36.1755 45.7723 35.9253 46.672 35.8942C46.897 35.8909 47.1221 35.8914 47.3462 35.9105C47.4623 35.9207 47.564 35.9325 47.6629 35.9445C47.7635 35.9564 47.8643 35.9672 47.9646 35.9831C48.3667 36.0396 48.7679 36.1071 49.1677 36.1927C49.9875 36.355 50.7863 36.6095 51.5489 36.9515ZM58.3021 36.9515C59.0646 36.6095 59.8635 36.355 60.6833 36.1927C61.0831 36.1071 61.4843 36.0396 61.8864 35.9831C61.9867 35.9672 62.0875 35.9564 62.1881 35.9445C62.287 35.9325 62.3887 35.9207 62.5048 35.9105C62.7288 35.8914 62.954 35.8909 63.1789 35.8942C64.0786 35.9253 64.9572 36.1755 65.7382 36.6232C65.9299 36.7337 66.1139 36.8568 66.2891 36.9919C66.4548 37.1208 66.6097 37.2533 66.7673 37.3897C67.088 37.6665 67.3873 37.967 67.6628 38.2888C67.2427 38.2346 66.8273 38.1488 66.4201 38.0321C66.2212 37.9764 66.0204 37.9148 65.8288 37.8531C65.6452 37.7983 65.4648 37.7445 65.2831 37.6992C64.5769 37.5154 63.8529 37.4078 63.1237 37.3785C62.9439 37.3699 62.7637 37.3682 62.5832 37.3735C62.497 37.3732 62.3967 37.3758 62.2936 37.3794C62.1923 37.3823 62.091 37.3864 61.9894 37.3853C61.5835 37.3883 61.1767 37.3801 60.7686 37.3539C59.9339 37.3133 59.1065 37.1783 58.3021 36.9515Z" fill="#382810"/>
<path d="M74.311 44.9948C74.5833 42.8632 74.1105 41.0466 73.2549 40.9373C72.3992 40.828 71.4848 42.4673 71.2124 44.5988C70.94 46.7304 71.4129 48.5469 72.2685 48.6563C73.1242 48.7656 74.0386 47.1263 74.311 44.9948Z" fill="#D8A353"/>
<path d="M37.7511 48.6564C38.6067 48.5471 39.0796 46.7305 38.8072 44.5989C38.5348 42.4674 37.6204 40.8281 36.7647 40.9374C35.9091 41.0467 35.4363 42.8633 35.7086 44.9949C35.981 47.1264 36.8955 48.7657 37.7511 48.6564Z" fill="#D8A353"/>
<path d="M38.9747 38.5393C39.088 39.633 39.1541 40.7203 39.2072 41.8067C39.2616 42.8928 39.3051 43.977 39.3471 45.0599C39.3919 46.1425 39.419 47.2254 39.4733 48.3066C39.527 49.3887 39.5813 50.4679 39.6695 51.564C39.2987 50.5273 39.0394 49.454 38.8962 48.3623C38.7385 47.277 38.6413 46.1837 38.6049 45.0876C38.5613 43.9935 38.5754 42.8989 38.6297 41.8064C38.676 40.7112 38.7912 39.62 38.9747 38.5393ZM71.155 38.5393C71.3385 39.62 71.4537 40.7112 71.4999 41.8064C71.5543 42.8989 71.5684 43.9935 71.5248 45.0876C71.4884 46.1837 71.3911 47.277 71.2334 48.3623C71.0903 49.454 70.831 50.5273 70.4601 51.564C70.5484 50.4679 70.6026 49.3887 70.6564 48.3066C70.7106 47.2254 70.7377 46.1425 70.7826 45.0599C70.8246 43.977 70.8681 42.8928 70.9224 41.8067C70.9756 40.7203 71.0417 39.633 71.155 38.5393Z" fill="#CCA364"/>
<path d="M60.4416 42.3005C60.5473 41.898 60.778 41.5396 61.1005 41.2767C61.4438 40.9845 61.8808 40.8257 62.3316 40.8293C62.7788 40.8413 63.2078 41.0083 63.5453 41.3019C63.861 41.5655 64.0981 41.911 64.2304 42.3005C63.8666 42.1167 63.5487 41.9272 63.2311 41.7943C62.9452 41.6599 62.6351 41.5842 62.3194 41.5719C62.0064 41.5714 61.6969 41.6384 61.4121 41.7684C61.0753 41.9203 60.7508 42.0982 60.4416 42.3005ZM45.2862 42.3005C45.3919 41.898 45.6226 41.5396 45.9451 41.2767C46.2884 40.9845 46.7255 40.8257 47.1763 40.8293C47.6234 40.8413 48.0525 41.0083 48.39 41.3019C48.7057 41.5655 48.9427 41.911 49.075 42.3005C48.7113 42.1167 48.3933 41.9272 48.0757 41.7943C47.7898 41.6599 47.4798 41.5842 47.1641 41.5719C46.851 41.5714 46.5415 41.6384 46.2567 41.7684C45.9199 41.9203 45.5954 42.0982 45.2862 42.3005ZM55.3157 62.2238L55.2561 62.2167C54.9567 62.1793 54.654 62.2531 54.4055 62.4242C44.3479 69.4434 39.2935 45.7968 39.2935 45.7968C38.9175 59.2903 45.1012 68.4163 51.0735 69.5245C52.6789 69.8225 54.1052 68.8774 55.3823 68.8774C56.646 68.8774 58.1287 69.8031 59.2313 69.5825C65.8938 68.2498 71.998 56.286 70.8667 43.9803C72.0451 56.7984 58.3021 65.0404 56.8186 62.8451C56.5586 62.4603 55.7768 62.2791 55.3157 62.2238Z" fill="#382810"/>
<path d="M53.614 56.6881C53.614 56.6881 52.8116 59.3787 53.614 60.8416C54.4163 62.3045 56.4125 62.1169 56.8456 60.8415C57.3471 59.3647 56.6228 56.3538 56.6228 56.3538L53.614 56.6881Z" fill="#382810"/>
<path d="M48.9792 55.4656C48.9792 55.4656 52.4114 59.7448 56.2449 59.0316C60.0783 58.3184 61.8167 54.485 61.8167 54.485L48.9792 55.4656Z" fill="#D7A65D"/>
<path d="M48.9792 55.4656C48.9792 55.4656 54.239 53.8609 61.8167 54.4849C61.8167 54.4849 57.0918 56.3125 48.9792 55.4656Z" fill="#A78044"/>
<path d="M55.0519 50.2932C55.0995 50.6117 55.0811 50.9365 54.998 51.2475C54.9606 51.4041 54.9124 51.5579 54.8538 51.7078C54.7926 51.8576 54.7228 52.0038 54.6448 52.1456C54.316 52.7223 53.8616 53.2176 53.3153 53.5947C52.7699 53.9742 52.1583 54.2484 51.5121 54.4031C51.3541 54.4423 51.1942 54.4748 51.0339 54.5077C50.9292 54.536 50.8362 54.5465 50.736 54.5741C50.5391 54.617 50.3392 54.6682 50.1375 54.7193C49.3294 54.9301 48.4755 55.189 47.5559 55.463L46.1217 55.8841C45.8711 55.9548 45.6198 56.0319 45.3606 56.112C45.2317 56.1541 45.102 56.1952 44.9712 56.2455C44.8327 56.2897 44.7032 56.3583 44.5888 56.448C44.5316 56.2879 44.5173 56.1156 44.5473 55.9483C44.5694 55.7869 44.6051 55.6277 44.654 55.4723C44.7481 55.173 44.8727 54.8842 45.0256 54.6104C45.3223 54.0821 45.6945 53.6 46.1304 53.1793C47.0112 52.3239 48.0999 51.7132 49.289 51.4075C49.5987 51.3294 49.9135 51.2731 50.231 51.2389C50.3892 51.2217 50.5581 51.2119 50.7131 51.2058C50.8125 51.2028 50.9123 51.1994 51.014 51.2026C51.418 51.2048 51.8219 51.1854 52.2238 51.1444C53.2131 51.0482 54.1739 50.759 55.0519 50.2932Z" fill="#352103"/>
<path d="M54.7189 50.2932C55.5969 50.759 56.5577 51.0482 57.547 51.1444C57.949 51.1854 58.3528 51.2048 58.7568 51.2026C58.8585 51.1994 58.9583 51.2028 59.0577 51.2058C59.2128 51.2119 59.3817 51.2216 59.5398 51.2389C59.8574 51.2731 60.1721 51.3294 60.4818 51.4075C61.6709 51.7132 62.7597 52.3239 63.6405 53.1793C64.0764 53.6 64.4485 54.0821 64.7452 54.6104C64.8982 54.8842 65.0227 55.173 65.1168 55.4723C65.1657 55.6276 65.2014 55.7869 65.2235 55.9483C65.2536 56.1156 65.2392 56.2879 65.182 56.448C65.0676 56.3583 64.9381 56.2897 64.7996 56.2454C64.6688 56.1952 64.5391 56.1541 64.4102 56.1119C64.151 56.0318 63.8998 55.9548 63.6491 55.8841L62.215 55.463C61.2953 55.189 60.4414 54.9301 59.6333 54.7193C59.4317 54.6682 59.2317 54.617 59.0348 54.5741C58.9346 54.5465 58.8416 54.536 58.7369 54.5077C58.5766 54.4748 58.4167 54.4422 58.2587 54.4031C57.6125 54.2484 57.0009 53.9742 56.4555 53.5947C55.9092 53.2175 55.4548 52.7223 55.126 52.1456C55.048 52.0038 54.9782 51.8576 54.917 51.7078C54.8584 51.5579 54.8102 51.4041 54.7728 51.2475C54.6897 50.9364 54.6714 50.6116 54.7189 50.2932Z" fill="#352103"/>
<path d="M58.5955 49.8336C57.583 50.8596 56.2445 51.5006 54.8104 51.6463C54.855 51.6537 54.8995 51.6574 54.9441 51.6611H54.6767C54.7212 51.6574 54.7658 51.6537 54.8104 51.6463C53.3997 51.5055 52.0803 50.8838 51.0735 49.8856" fill="#CCA364"/>
<path d="M53.9716 24.513C53.9716 24.513 46.2663 23.4035 46.0814 29.691C45.8964 35.9785 41.8897 37.8278 41.3349 38.0127C40.7801 38.1976 36.2802 40.9099 38.4377 47.1358C38.4377 47.1358 32.3967 45.3482 35.6638 35.3005C38.9308 25.2527 38.4891 20.3778 47.1807 15.3848C55.8722 10.3918 65.2521 20.5063 65.2521 20.5063C65.2521 20.5063 72.7617 19.2999 72.0944 30.8006C72.0944 30.8006 74.7966 34.5477 74.1186 39.3558C74.1186 39.3558 68.3959 37.9511 66.7932 34.4991C65.1905 31.0471 69.2589 26.7322 60.1358 24.3898C60.1358 24.3898 54.4088 24.5568 53.9716 24.513Z" fill="#382810"/>
<path d="M50.5812 21.3076C45.095 19.6433 46.2634 28.3176 46.2634 28.3176L46.2691 28.3149C47.1554 24.8 50.9654 24.4069 52.8737 24.4399C52.3191 21.3628 50.5812 21.3076 50.5812 21.3076ZM58.3481 18.5953C58.9646 19.9515 56.1349 24.4927 56.1349 24.4927C57.916 24.4544 60.1357 24.3897 60.1357 24.3897C60.3823 20.5678 58.3481 18.5953 58.3481 18.5953ZM67.5945 29.0746C67.2246 24.5746 62.4735 25.1408 62.4735 25.1408L62.4737 25.1425C68.5033 27.5798 65.3493 31.3893 66.7932 34.4991C67.2284 35.3745 67.8464 36.1464 68.6055 36.7625C67.9419 36.2424 67.9643 33.574 67.5945 29.0746Z" fill="#352103"/>
<path d="M102.616 99H8C9.43881 90.3634 16.0939 87.5752 16.0939 87.5752L37.7656 80.8308L38.9092 80.4736L45.159 84.1377L54.3896 96.6648H55.7734L71.1061 80.4736L72.4007 80.8789L81.1814 83.6123L82.8812 84.1412L88.6983 85.9509L93.918 87.5752C100.333 90.5455 102.616 99 102.616 99Z" fill="#484783"/>
<path d="M40.6084 88.4852L54.2779 98.9992L55.0662 96.6649L46.7765 87.9961L44.9393 84.6837L39.5846 80.4753L38.4434 80.8306L36.2292 81.5197L35.8489 86.2285L42.2155 86.4861L40.6084 88.4852Z" fill="#3A3969"/>
<path d="M69.5547 88.4852L55.7659 98.9992L55.0969 96.6649L63.3866 87.9961L65.2237 84.6837L70.5785 80.4753L71.7197 80.8306L73.9339 81.5197L74.3142 86.2285L67.9476 86.4861L69.5547 88.4852Z" fill="#3A3969"/>
<path d="M66.2256 71.6107L71.2941 75.5607L72.0358 84.7448L65.6693 85.0023L67.2765 87.0017L55.0969 96.665L62.5144 84.1378L64.9894 71.6107H66.2256Z" fill="#484783"/>
<path d="M55.0661 96.6649L51.5304 87.8545C50.5482 85.407 50.1198 82.7725 50.276 80.14L50.6555 73.7437L47.6488 72.7645L44.517 74.5104L46.5967 86.3861L55.0661 96.6649Z" fill="#D8A353"/>
<path d="M43.9375 71.6107L38.869 75.5607L38.1274 84.7448L44.4938 85.0023L42.8867 87.0017L55.0662 96.665L47.6487 84.1378L45.1738 71.6107H43.9375Z" fill="#484783"/>
</svg>
